<svg xmlns="http://www.w3.org/2000/svg" overflow="visible" viewBox="0 0 37.22 35.45"><defs/><path d="M18.61 35.45h.1a4.507 4.507 0 002.74-.92c.42-.32.75-.7.98-1.15.24-.46.35-.93.33-1.42.04-.38-.01-.77-.13-1.16-.02-.11-.03-.22-.05-.33-.1-.48-.17-.95-.21-1.4-.04-.46.05-.89.26-1.32.19-.37.5-.7.92-.99.42-.29.88-.57 1.37-.85.49-.28.94-.57 1.37-.87.43-.3.75-.65.95-1.05.24-.47.34-.95.3-1.44-.04-.49-.11-.98-.2-1.47-.09-.49-.16-.97-.22-1.43-.06-.46.02-.89.22-1.29.23-.45.57-.82 1.01-1.11.44-.3.91-.57 1.41-.83.49-.26.96-.54 1.41-.83.44-.3.79-.68 1.03-1.15.22-.42.3-.87.25-1.34-.05-.47-.12-.94-.21-1.4-.09-.46-.17-.92-.23-1.37-.06-.45.02-.89.23-1.31.18-.35.48-.67.9-.96.42-.29.88-.57 1.36-.83.48-.26.94-.55 1.37-.87.44-.31.76-.67.96-1.07a3.262 3.262 0 00.1-2.86c-.2-.45-.49-.85-.88-1.21-.38-.36-.83-.65-1.34-.86-.5-.22-1.02-.34-1.56-.36-.54-.02-1.06.05-1.57.2-.51.15-.96.38-1.36.69-.4.31-.72.69-.95 1.14-.25.5-.37.99-.35 1.48.02.5.08.99.17 1.49.09.49.15.97.19 1.44.04.47-.05.9-.25 1.3-.18.35-.44.68-.78 1.01-.15-.06-2.21 1.61-2.4 1.74-.23.16-.45.33-.65.52-.53.53-.77 1.27-.81 1.99-.06.99.3 1.94.24 2.92-.03.46-.11.81-.23 1.06-.13.25-.41.52-.84.82-.43.3-.9.62-1.41.94-.51.33-1 .66-1.47 1.01s-.79.66-.98.95c-.22.42-.31.9-.29 1.42.02.52.06 1.05.12 1.57s.11 1.03.15 1.52c.04.49-.02.89-.18 1.21-.2.4-.5.74-.88 1.03-.38-.29-.68-.63-.88-1.03-.17-.32-.23-.73-.18-1.21.04-.49.09-.99.15-1.52.06-.52.1-1.05.12-1.57.02-.52-.07-1-.29-1.42-.18-.29-.51-.6-.98-.95s-.96-.68-1.47-1.01c-.51-.33-.98-.64-1.41-.94-.43-.3-.71-.58-.84-.82-.13-.25-.2-.6-.23-1.06-.06-.98.3-1.94.24-2.92-.04-.72-.28-1.45-.81-1.99a4.78 4.78 0 00-.65-.52c-.19-.14-2.25-1.81-2.4-1.74-.34-.32-.6-.66-.78-1.01-.2-.4-.29-.83-.25-1.3.01-.47.08-.95.17-1.44.09-.5.15-.99.17-1.48.02-.49-.09-.99-.35-1.48-.23-.45-.54-.83-.95-1.15C6.6.58 6.15.35 5.64.2 5.14.05 4.61-.01 4.07 0 3.53.02 3.01.14 2.5.35c-.51.22-.95.5-1.34.86-.38.36-.68.77-.88 1.22-.2.44-.29.91-.28 1.41.01.49.14.98.38 1.45.2.4.52.75.96 1.07.44.31.89.6 1.37.87.49.26.94.53 1.36.82.43.29.73.61.91.96.22.42.29.86.23 1.31-.06.45-.14.91-.23 1.37-.09.46-.16.93-.21 1.4-.05.47.03.92.25 1.34.24.47.59.86 1.03 1.15.44.3.91.57 1.41.83.49.26.96.54 1.41.83.44.3.78.67 1.01 1.11.2.4.28.83.22 1.29-.06.46-.13.94-.22 1.43s-.16.98-.2 1.47c-.04.49.06.97.3 1.44.2.4.52.75.95 1.05.43.3.89.59 1.37.87.49.28.94.56 1.37.85.42.29.73.62.92.99.22.42.3.86.26 1.32-.04.46-.11.92-.21 1.4-.02.11-.04.22-.05.33-.12.39-.16.78-.13 1.16-.02.48.09.96.33 1.42.23.45.56.83.98 1.15a4.507 4.507 0 002.74.92h.04c.02.01.04.01.06.01z"/></svg>