<svg xmlns="http://www.w3.org/2000/svg" overflow="visible" viewBox="0 0 12.27 12.88"><defs/><path fill="#fff" d="M11.96 10.46c-.11-.14-.24-.25-.39-.33a.957.957 0 00-.51-.12c-.17.01-.34.03-.51.06-.17.03-.34.05-.5.07a.868.868 0 01-.45-.09 1.1 1.1 0 01-.35-.27c.02-.05-.56-.77-.6-.83-.06-.08-.12-.16-.19-.23-.18-.18-.44-.26-.68-.28-.35-.02-.68.1-1.02.08-.16-.01-.28-.03-.36-.08-.09-.04-.18-.14-.29-.29-.1-.14-.21-.31-.33-.49-.11-.17-.22-.34-.34-.5-.12-.17-.23-.28-.33-.34a.903.903 0 00-.49-.1c-.19.01-.37.02-.55.04-.18.02-.35.04-.52.05-.17.02-.31 0-.42-.06-.14-.07-.26-.18-.36-.31.1-.13.22-.24.36-.31.11-.06.25-.08.42-.06.17.02.34.03.52.05.18.02.36.03.54.04.18.01.35-.03.49-.1.11-.06.22-.17.34-.33.12-.16.23-.33.34-.51.12-.18.23-.34.33-.49.1-.15.2-.25.29-.29.08-.04.2-.07.36-.08.34-.02.67.1 1.01.08.25-.01.5-.1.69-.28.07-.07.12-.15.18-.22.05-.07.62-.78.6-.83.12-.12.23-.21.35-.27.14-.07.29-.1.45-.09.16.01.33.03.5.07.17.03.34.05.51.06.17.01.34-.03.51-.12.15-.08.29-.19.39-.33.11-.14.19-.3.24-.47.05-.18.07-.36.07-.54a1.75 1.75 0 00-.12-.55 1.31 1.31 0 00-.3-.46c-.12-.13-.26-.23-.42-.3a.97.97 0 00-.48-.11c-.17 0-.34.05-.5.13-.14.07-.26.18-.37.33-.11.15-.21.31-.3.48-.09.17-.19.32-.29.47-.1.15-.21.25-.33.31-.14.08-.29.1-.45.08-.15-.02-.31-.04-.47-.08a7.22 7.22 0 00-.49-.07.737.737 0 00-.46.09c-.16.08-.3.2-.4.36-.1.15-.2.32-.29.49-.09.16-.19.33-.29.48-.1.15-.23.27-.38.35-.14.07-.29.1-.45.08-.16-.02-.33-.04-.5-.08-.17-.03-.34-.06-.5-.07a.998.998 0 00-.5.1.94.94 0 00-.36.33c-.11.15-.21.31-.31.48-.1.17-.19.33-.29.47-.1.15-.21.25-.34.32a.75.75 0 01-.46.09c-.16-.01-.32-.04-.49-.07-.03-.01-.07-.01-.11-.02a.928.928 0 00-.4-.04.95.95 0 00-.49.11c-.16.08-.29.19-.4.34s-.19.3-.25.47c-.04.16-.07.31-.07.48V6.47c0 .17.03.33.07.48.05.17.14.33.25.47.11.15.24.26.4.34.16.08.32.12.49.11.13.01.27 0 .4-.04.04-.01.08-.01.11-.02.17-.03.33-.06.49-.07.16-.01.31.02.46.09.13.07.24.18.34.32.1.15.2.3.29.47.1.17.2.33.3.48.1.15.23.26.36.33.16.08.33.12.5.1.17-.01.34-.03.51-.07.17-.03.34-.06.5-.08.16-.02.31.01.45.08.15.08.28.2.38.35.1.15.2.32.29.49.09.17.19.33.29.49.1.15.24.27.4.36.15.07.3.1.47.09.16-.02.33-.04.49-.07.16-.03.32-.06.47-.08.16-.02.31.01.45.08.12.06.23.17.33.31.1.15.2.3.29.47.09.17.19.32.3.48.11.15.23.26.37.33a1.128 1.128 0 00.99.03c.15-.07.29-.17.42-.3.12-.13.22-.29.3-.46a1.603 1.603 0 00.05-1.09c-.06-.18-.14-.34-.25-.48z"/></svg>