<svg fill="none" xmlns="http://www.w3.org/2000/svg" viewBox="0 0 31 31"><path fill-rule="evenodd" clip-rule="evenodd" d="M25.4 7.1c-.2.2-.4.5-.5.8 0 .4-.1.8-.1 1.2-.1.5-.3 1-.6 1.4-.2.3-.4.5-.7.7l-.1.1c-.3.3-.6.5-1 .6l-1.2.3c-.3.1-.7.1-1 .2-.3.1-.5.3-.8.5-.2.2-.4.5-.4.8-.1.4-.2.8-.4 1.2 0 .1-.1.2-.1.4.1.3.1.6.2.9.1.4.3.7.6 1 .3.3.6.4.9.5.4.1.8.2 1.2.2l1.2.3c.4.1.7.3 1 .6.3.3.5.6.6 1l.3 1.2.3 1.2c.1.3.3.7.5.9.3.3.6.5 1 .5.4.1.8.2 1.1.2l1.2.3c.4.1.7.3 1 .6.3.3.5.6.6 1 .1.4.2.8.2 1.2 0 .4-.1.8-.2 1.1-.1.4-.3.7-.6.9-.6.6-1.4 1-2.2 1-.4 0-.8 0-1.2-.2-.4-.2-.7-.4-1-.7-.2-.3-.4-.6-.5-.9l-.3-1.2-.3-1.2c-.1-.4-.3-.7-.6-1-.2-.2-.6-.4-.9-.5l-1.2-.3h-.2c-.4 0-.8 0-1.2-.2-.4-.2-.7-.4-1-.7-.3-.3-.5-.6-.6-1l-.3-1.2-.3-1.2c-.1-.3-.3-.7-.5-.9-.3-.3-.6-.5-1-.5-.3-.1-.7-.1-1-.2l-1 .3c-.3.1-.6.2-.9.5-.3.3-.5.6-.6 1l-.3 1.2-.3 1.2c-.1.3-.2.6-.5.9-.3.3-.6.5-1 .7-.3.1-.7.2-1 .2-.2 0-.4.1-.6.1l-1.1.5c-.4.1-.7.3-1 .5-.2.3-.4.6-.5.9l-.3 1.2c-.1.4-.2.8-.4 1.2-.1.4-.3.7-.6 1-.3.3-.6.5-1 .7-.4.1-.8.2-1.2.2-.4 0-.8-.1-1.2-.3-.4-.2-.7-.4-1-.7-.3-.3-.5-.6-.7-1 0-.4-.1-.8-.1-1.2 0-.4.1-.8.2-1.2.1-.4.4-.7.6-1 .3-.3.7-.5 1.1-.7l1.2-.3 1.2-.3c.3-.1.7-.3.9-.5.2-.2.4-.5.5-.9.1-.4.1-.8.1-1.2.1-.5.3-1 .6-1.4.2-.3.4-.5.7-.7l.1-.1c.3-.3.6-.5 1-.6.4 0 .8-.1 1.2-.2.3-.1.7-.1 1-.2.3-.1.5-.3.8-.5.2-.2.4-.5.4-.8l.3-1.2c0-.1.1-.2.1-.3-.1-.3-.1-.6-.2-.9-.1-.4-.3-.7-.6-1-.3-.3-.6-.4-.9-.5-.4-.1-.8-.2-1.2-.2-.3-.2-.7-.3-1.1-.4-.4-.1-.7-.3-1-.6-.3-.3-.5-.6-.6-1l-.3-1.2c-.1-.5-.2-.9-.3-1.2-.1-.4-.3-.7-.6-1-.2-.2-.6-.4-1-.5-.3-.1-.7-.2-1.1-.3-.4 0-.8-.1-1.2-.3-.4-.1-.7-.3-1-.6-.3-.3-.5-.6-.6-1-.2-.4-.2-.8-.2-1.2 0-.4.1-.8.2-1.1.1-.4.3-.7.6-1 .6-.6 1.4-1 2.2-1 .4 0 .8 0 1.2.2.4.2.7.4 1 .7.2.2.4.6.5.9L6.1 3l.3 1.2c.1.4.3.7.6 1 .3.2.6.4.9.5l1.3.3h.2c.4 0 .8 0 1.2.2.4.2.7.4 1 .7.3.3.5.6.6 1l.3 1.2.3 1.2c.1.3.3.7.5.9.3.3.6.5 1 .5.3.1.7.1 1.1.2l1-.3c.3-.1.6-.2.9-.5.3-.3.5-.6.6-1 .1-.3.2-.7.3-1.1l.3-1.2c.1-.3.2-.6.5-.9.3-.3.6-.5 1-.7.3-.1.7-.2 1-.2.2 0 .4-.1.6-.1l1.1-.2c.4-.1.7-.3.9-.5.2-.3.4-.6.5-.9l.3-1.2.3-1.2c.1-.4.3-.7.6-1 .3-.3.6-.5 1-.7.4-.1.8-.2 1.2-.2.4 0 .8.1 1.2.3.4.2.7.4 1 .7.3.3.5.6.7 1 .1.4.2.8.2 1.2 0 .4-.1.8-.2 1.1-.1.4-.4.7-.6 1-.3.3-.7.5-1.1.7l-1.2.3-1.2.3c-.3 0-.7.2-.9.5z" fill="#F0F0F5"/></svg>