<svg xmlns="http://www.w3.org/2000/svg" viewBox="0 0 21 37">
    <path
        d="M.5 22v-5.3C.5 15 .5 15 2.2 15h3.4c.9 0 .9 0 .9-.9 0-1.8-.1-3.6.1-5.4.2-2.5 1-4.8 3.2-6.4 1.1-.8 2.4-1.3 3.8-1.6 2.1-.4 4.2-.4 6.3-.2.2 0 .4.1.6.2v1.9c0 1.1-.1 2.3-.1 3.4 0 1.2.1 1-1.1 1.1-1.2 0-2.4 0-3.6.1-1.4.2-2.1 1.1-2.1 2.5v4.6c0 .5.2.7.7.7h6c-.1.7-.1 1.3-.2 1.9-.2 1.5-.4 2.9-.6 4.4-.1.5-.2.7-.8.7h-5.1v14.7H7.5c-.6 0-.8-.1-.8-.7 0-3.3-.1-6.6-.1-9.9 0-1.1-.1-2.3-.1-3.4 0-.5-.2-.6-.6-.6H1.2C.9 22 .7 22 .5 22z" />
    </svg>