<svg fill="none" xmlns="http://www.w3.org/2000/svg" viewBox="0 0 43 43"><path d="M21.5 42.9h-6.8c-1.9 0-3.7-.1-5.6-.5-3.2-.8-5.7-2.5-7.3-5.4C.9 35.5.5 33.8.3 32.1 0 29.5 0 26.9 0 24.2v-8.7c0-1.8 0-3.7.4-5.5.6-3.3 2.1-6 5-7.9C7 1 8.9.4 10.8.3c2.3-.2 4.6-.3 6.9-.3h9.9c1.9 0 3.8.1 5.7.4 3.4.7 6.1 2.4 7.9 5.5.9 1.7 1.4 3.5 1.6 5.4.3 2.9.2 5.8.2 8.7v8c0 1.9-.1 3.7-.5 5.6-1.1 4.5-3.8 7.4-8.3 8.6-1.6.4-3.2.5-4.9.6-2.6.1-5.2.2-7.8.1 0 .1 0 .1 0 0zm-.1-3.8c2.2-.1 4.5-.1 6.7-.1 1.6 0 3.1 0 4.6-.4 3.1-.7 5.1-2.6 5.8-5.7.4-1.7.4-3.5.4-5.3V17c0-2.1 0-4.2-.3-6.3-.5-3.5-2.7-5.8-6.1-6.5-1.7-.4-3.4-.4-5-.4h-9c-2.5 0-4.9 0-7.4.3-1.2.2-2.5.6-3.7 1.4-1.8 1.2-2.7 2.9-3.1 5-.3 1.5-.4 3.1-.4 4.6v13.6c0 1.3.1 2.7.4 4 .6 2.7 2.1 4.6 4.7 5.5 1.4.5 2.8.6 4.2.7 2.8.2 5.5.2 8.2.2z" fill="#000"/><path d="M32.5 21.5c0 6-4.9 11-10.9 11-6.1 0-11.2-4.9-11.2-11s4.9-11 11-11c6.2-.1 11.1 4.8 11.1 11zm-11 7.1c3.9 0 7.2-3.3 7.2-7.3-.1-3.8-3.3-7-7.2-7-3.9 0-7.1 3.3-7.1 7.3 0 3.9 3.2 7.1 7.1 7zM30.4 10c0-1.4 1.2-2.6 2.6-2.6 1.4 0 2.6 1.2 2.6 2.6 0 1.5-1.2 2.6-2.6 2.6-1.5 0-2.6-1.2-2.6-2.6z" fill="#000"/></svg>