<svg xmlns="http://www.w3.org/2000/svg" viewBox="0 0 512 512" xml:space="preserve"><path d="M255.9 170.6c-47 0-85.4 38.4-85.4 85.4 0 47 38.4 85.4 85.4 85.4s85.4-38.4 85.4-85.4c0-47-38.4-85.4-85.4-85.4zM512 256c0-35.4.3-70.4-1.7-105.7-2-41-11.3-77.3-41.3-107.3-30-30-66.3-39.3-107.3-41.3C326.3-.3 291.3 0 256 0c-35.4 0-70.4-.3-105.7 1.7C109.3 3.7 73 13 43 43 13 73 3.7 109.3 1.7 150.3-.3 185.7 0 220.7 0 256s-.3 70.4 1.7 105.7C3.7 402.7 13 439 43 469c30 30 66.3 39.3 107.3 41.3 35.4 2 70.4 1.7 105.7 1.7 35.4 0 70.4.3 105.7-1.7 41-2 77.4-11.3 107.3-41.3 30-30 39.3-66.3 41.3-107.3 2.1-35.3 1.7-70.3 1.7-105.7zM255.9 387.4c-72.7 0-131.4-58.7-131.4-131.4s58.7-131.4 131.4-131.4S387.3 183.3 387.3 256s-58.7 131.4-131.4 131.4zm136.8-237.5c-17 0-30.7-13.7-30.7-30.7s13.7-30.7 30.7-30.7 30.7 13.7 30.7 30.7-13.7 30.7-30.7 30.7z"/></svg>