<svg xmlns="http://www.w3.org/2000/svg" overflow="visible" viewBox="0 0 51.44 52.65"><path d="M49.73 37.08c.39-.63.75-1.26 1.08-1.9.32-.59.48-1.25.49-1.92-.12-.6-.32-1.18-.61-1.72-.33-.66-.7-1.31-1.1-2-.4-.69-.77-1.29-1.08-1.9-.26-.45-.42-.94-.46-1.46.02-.55.19-1.08.49-1.53.33-.52.7-1.07 1.11-1.63.41-.58.79-1.19 1.13-1.81.35-.64.53-1.36.52-2.09.01-.66-.14-1.32-.43-1.92-.28-.59-.67-1.13-1.14-1.58-.46-.44-.99-.79-1.58-1.04-.63-.27-1.31-.41-2-.4-.81-.04-1.63.12-2.36.48-.54.31-1.04.66-1.51 1.07-.45.4-.93.77-1.44 1.09-.61.34-1.3.51-2 .48-.8.04-1.61-.13-2.33-.48-.61-.32-1.15-.75-1.6-1.27-.43-.48-.77-1.04-1-1.64-.2-.53-.31-1.09-.32-1.66.02-.61.19-1.2.5-1.73.32-.62.67-1.25 1-1.89.33-.64.72-1.27 1-1.89.3-.52.47-1.12.49-1.72.01-.66-.13-1.32-.4-1.92-.24-.6-.59-1.15-1.03-1.62-.49-.45-1.04-.82-1.65-1.08-.63-.26-1.31-.4-2-.39-.68 0-1.36.12-2 .37-.62.22-1.19.56-1.68 1a4.82 4.82 0 00-1.54 3.61c.01.64.19 1.27.52 1.83.33.62.68 1.24 1 1.84.32.6.71 1.19 1 1.78.31.5.48 1.07.5 1.66a3.59 3.59 0 01-.5 1.78c-.33.58-.67 1.18-1 1.78-.33.6-.72 1.2-1 1.81-.31.55-.48 1.17-.49 1.8.01.61.18 1.2.49 1.72.33.59.68 1.17 1 1.75s.71 1.17 1 1.75c.31.52.49 1.12.5 1.73 0 .64-.17 1.27-.5 1.83-.33.59-.67 1.17-1 1.75-.33.58-.72 1.17-1 1.75a3.69 3.69 0 000 3.67c.33.59.68 1.18 1 1.78s.71 1.2 1 1.78c.31.52.49 1.11.5 1.72 0 .67-.17 1.33-.5 1.92-.33.6-.67 1.18-1 1.72-.33.54-.72 1.1-1 1.67-.32.55-.49 1.17-.49 1.81 0 .67.13 1.33.4 1.94a5.099 5.099 0 002.74 2.68c.63.27 1.31.41 2 .4.68.01 1.36-.12 2-.37a5.39 5.39 0 001.68-1c.51-.45.92-1 1.2-1.61.29-.65.44-1.35.43-2.06-.03-.56-.2-1.1-.49-1.58-.33-.6-.68-1.22-1-1.84-.32-.62-.72-1.25-1-1.89-.3-.54-.47-1.14-.5-1.75.03-.57.2-1.12.5-1.61.32-.58.67-1.18 1-1.8.33-.62.72-1.26 1-1.9.32-.59.48-1.25.49-1.92-.02-.57-.19-1.12-.49-1.6-.33-.59-.68-1.2-1-1.84s-.72-1.27-1-1.89c-.3-.52-.48-1.11-.5-1.72-.01-.69.14-1.38.44-2 .28-.61.69-1.16 1.19-1.61.5-.45 1.08-.82 1.71-1.07.63-.27 1.31-.4 2-.4.63 0 1.26.15 1.83.43.59.27 1.12.65 1.57 1.12.44.47.81 1.02 1.07 1.61.27.59.41 1.22.41 1.87-.02.6-.18 1.19-.46 1.72-.31.62-.65 1.25-1 1.89-.35.64-.69 1.27-1 1.89-.28.51-.44 1.09-.46 1.67.01.65.17 1.28.46 1.86.31.67.65 1.3 1 1.89.37.62.71 1.22 1 1.78.28.48.44 1.02.46 1.58.01.66-.15 1.31-.46 1.89-.3.58-.64 1.15-1 1.7-.37.54-.71 1.1-1 1.66a3.81 3.81 0 00-.46 1.87c0 .67.14 1.33.43 1.94.28.6.66 1.15 1.14 1.61.46.45 1 .82 1.6 1.07.57.26 1.2.4 1.83.4.68 0 1.36-.13 2-.37.63-.22 1.22-.56 1.72-1 .49-.46.89-1.01 1.19-1.61.31-.64.47-1.35.46-2.06-.02-.58-.19-1.14-.49-1.64-.33-.6-.69-1.2-1.08-1.81-.39-.61-.74-1.21-1.07-1.83a3.81 3.81 0 01-.5-1.78c.03-.57.2-1.12.5-1.61.19-.62.55-1.22.93-1.84zM23.39 22.62c.41-.58.78-1.18 1.11-1.8.34-.61.5-1.3.49-2 0-.64-.17-1.26-.49-1.81-.33-.56-.68-1.11-1.06-1.64-.38-.53-.72-1.05-1.05-1.58-.33-.52-.5-1.13-.49-1.75.01-.58.17-1.15.46-1.66.32-.59.67-1.17 1.06-1.75.37-.58.7-1.19 1-1.81.3-.57.45-1.2.46-1.84.01-.68-.12-1.35-.39-1.97-.27-.62-.66-1.18-1.15-1.64-.5-.44-1.07-.78-1.7-1-.64-.25-1.32-.37-2-.37-.69-.01-1.37.13-2 .4-.61.26-1.17.62-1.66 1.07-.48.44-.87.98-1.14 1.58-.27.6-.41 1.26-.41 1.92 0 .69.16 1.38.47 2 .31.61.66 1.19 1.05 1.75.39.57.74 1.13 1 1.69.3.54.47 1.14.47 1.76-.02 1.2-.44 2.37-1.2 3.3-.44.53-.99.95-1.61 1.24-.7.32-1.45.48-2.22.48-.76 0-1.52-.16-2.22-.48-.61-.29-1.16-.71-1.6-1.24-.76-.93-1.18-2.1-1.2-3.3 0-.62.17-1.22.47-1.76.31-.56.66-1.12 1.05-1.69.37-.56.7-1.15 1-1.75.31-.62.47-1.31.47-2 .06-.64-.01-1.3-.21-1.91-.27-.6-.66-1.14-1.14-1.58C8.52 1.03 7.96.67 7.35.41c-.63-.27-1.31-.41-2-.4-.68 0-1.36.12-2 .37-.63.22-1.2.56-1.7 1C1.16 1.84.76 2.4.5 3.02.23 3.64.1 4.31.11 4.99c.01.64.16 1.27.46 1.84.31.62.66 1.23 1.05 1.81.39.58.74 1.16 1.06 1.75.29.51.45 1.08.46 1.66 0 .63-.19 1.25-.54 1.77-.33.53-.69 1.06-1.05 1.58S.82 16.48.49 17.04c-.32.55-.49 1.17-.49 1.81-.01.7.15 1.39.49 2 .33.61.7 1.21 1.11 1.78.4.57.77 1.17 1.11 1.78.33.59.5 1.25.5 1.92 0 .61-.18 1.2-.5 1.72-.33.55-.69 1.1-1.08 1.67-.39.57-.75 1.1-1.08 1.71a4 4 0 000 3.76c.32.62.67 1.23 1.05 1.81.39.6.74 1.2 1.06 1.78.29.53.45 1.12.46 1.72.01.62-.15 1.24-.46 1.78-.32.55-.67 1.09-1.06 1.64-.39.55-.74 1.12-1.05 1.72-.31.62-.47 1.31-.46 2 0 .67.14 1.33.43 1.94.28.6.67 1.14 1.14 1.61.47.45 1.01.81 1.61 1.07.58.26 1.21.4 1.84.4 1.42.04 2.79-.47 3.85-1.41.52-.46.93-1.02 1.2-1.66.27-.63.4-1.32.38-2.01-.02-.57-.19-1.13-.5-1.61-.33-.55-.68-1.11-1-1.69-.32-.58-.72-1.19-1.05-1.81-.33-.61-.51-1.3-.5-2 .03-.57.2-1.12.5-1.61.33-.58.68-1.18 1.05-1.8.37-.63.72-1.26 1-1.9.32-.59.49-1.25.5-1.92a5.34 5.34 0 00-.56-1.69c-.33-.68-.69-1.35-1.08-2-.39-.65-.74-1.32-1-1.92-.26-.45-.42-.95-.46-1.47.02-.5.14-.99.35-1.44.24-.6.58-1.15 1-1.64.46-.53 1.01-.98 1.63-1.32.66-.37 1.41-.57 2.17-.57s1.5.2 2.17.57c.62.34 1.17.79 1.63 1.32.42.49.76 1.04 1 1.64.21.45.33.94.35 1.44-.08.53-.27 1.03-.58 1.47-.31.6-.66 1.24-1.05 1.92-.39.68-.75 1.35-1.08 2-.29.52-.48 1.1-.56 1.69.01.67.18 1.33.5 1.92.33.64.68 1.27 1.05 1.9.37.63.72 1.22 1 1.8.3.49.47 1.04.5 1.61.01.7-.17 1.39-.5 2-.33.62-.68 1.22-1 1.81-.32.59-.72 1.14-1.05 1.69-.31.48-.48 1.04-.5 1.61-.02.69.11 1.38.38 2.01.27.63.68 1.2 1.2 1.66 1.06.94 2.43 1.45 3.85 1.41.63 0 1.26-.14 1.84-.4.6-.26 1.14-.62 1.61-1.07.47-.47.86-1.01 1.14-1.61a4.5 4.5 0 00.43-1.94c.01-.69-.15-1.38-.46-2-.29-.6-.63-1.17-1-1.72-.39-.55-.74-1.09-1.06-1.64-.31-.54-.47-1.16-.46-1.78.01-.58.15-1.16.43-1.67.32-.58.67-1.18 1.06-1.78.36-.59.7-1.19 1-1.81a4 4 0 000-3.76c-.33-.58-.69-1.16-1.08-1.72-.39-.56-.75-1.12-1.08-1.67a3.28 3.28 0 01-.5-1.72c0-.67.17-1.33.5-1.92.33-.63.71-1.24 1.12-1.83z"/></svg>