<svg xmlns="http://www.w3.org/2000/svg" viewBox="0 0 27 23">
    <path
        d="M25.9 9.6c.1-.1.3-.1.4 0 0 .1.1.1.1.2v10.5c0 1.4-1.1 2.5-2.5 2.5H2.5c-1.4 0-2.5-1.1-2.5-2.4V9.9c0-.2.2-.3.3-.3.1 0 .1 0 .2.1 1.2.9 2.7 2 8 5.9 1.1.8 2.9 2.5 4.8 2.5 1.8 0 3.7-1.7 4.8-2.5 5.2-3.9 6.7-5.1 7.8-6z" />
    <path
        d="M13.2 13.2c1.2 0 2.9-1.5 3.8-2.1 6.8-5 7.4-5.4 8.9-6.6.3-.2.5-.6.5-1v-1c0-1.4-1.1-2.5-2.5-2.5H2.5C1.1 0 0 1.1 0 2.4v1.1c0 .4.2.8.5 1 1.6 1.2 2.1 1.7 8.9 6.6.9.7 2.6 2.2 3.8 2.1z" />
    </svg>