<svg width="33" height="25" viewBox="0 0 33 25" fill="none" xmlns="http://www.w3.org/2000/svg">
<path fill-rule="evenodd" clip-rule="evenodd" d="M10.6216 4.11613C6.84031 7.87141 6.21557 8.23226 3.48832 8.23226H0.5V12.3484V16.4645H3.44783C6.12761 16.4645 6.79424 16.8528 10.7773 20.7323L15.1589 25V12.5C15.1589 5.62538 15.0702 0 14.9627 0C14.8545 0 12.9014 1.85226 10.6216 4.11613ZM26.026 1.29658C25.8145 1.63273 26.4965 3.40747 27.5414 5.24121C28.9668 7.74381 29.4408 9.51649 29.4408 12.3484C29.4408 15.1803 28.9668 16.953 27.5414 19.4556C26.4965 21.2893 25.8145 23.064 26.026 23.4002C27.3851 25.5619 30.7238 21.3998 32.0047 15.9466C32.6616 13.149 32.6644 11.5595 32.0173 8.80509C30.668 3.05897 27.4521 -0.971406 26.026 1.29658ZM21.791 5.4868C21.5543 5.86343 21.8496 6.85816 22.4478 7.69785C23.0461 8.53685 23.5354 10.6292 23.5354 12.3484C23.5354 14.0676 23.0461 16.1599 22.4478 16.9989C21.28 18.6371 21.6109 19.8946 23.2094 19.8946C24.7437 19.8946 26.4888 15.8787 26.4888 12.3484C26.4888 7.37542 23.4209 2.89501 21.791 5.4868ZM18.2603 8.98208C17.334 10.4543 17.4198 15.0602 18.3873 15.8498C20.3216 17.4277 21.5662 11.6589 19.8029 9.28873C19.0288 8.24804 18.7559 8.19384 18.2603 8.98208Z" fill="white"/>
</svg>
