<svg fill="none" xmlns="http://www.w3.org/2000/svg" viewBox="0 0 34 34"><path fill-rule="evenodd" clip-rule="evenodd" d="M6.16 25.56c2.3 1.5 5 2.3 7.8 2.3 3.293 0 6.428-1.19 8.911-3.214 1.263.356 2.088 1.136 2.088 2.813v.5l-.1.8c0 2.4 1.9 4.3 4.3 4.3s4.3-1.9 4.3-4.3-1.9-4.3-4.3-4.3c0 0-.5 0-.8.1h-.7c-1.634 0-2.417-.783-2.785-1.993 1.91-2.482 2.985-5.473 2.985-8.607 0-2.8-.8-5.5-2.3-7.8-1.6-2.3-3.8-4-6.3-5.1-2.6-1.1-5.4-1.3-8.1-.8-2.7.5-5.1 1.8-7.1 3.8-2 1.9-3.3 4.4-3.8 7.1-.5 2.7-.3 5.6.8 8.1 1 2.6 2.8 4.8 5.1 6.3zm2.2-20c1.7-1.1 3.6-1.7 5.6-1.7 2.6 0 5.2 1.1 7 3 1.9 1.9 3 4.4 3 7.1 0 2-.6 3.9-1.7 5.6-1.1 1.6-2.7 2.9-4.5 3.7-1.8.8-3.8 1-5.8.6s-3.8-1.4-5.2-2.8c-1.4-1.4-2.4-3.2-2.8-5.2-.4-1.9 0-4 .7-5.8.7-1.8 2-3.4 3.7-4.5z" fill="#fff"/></svg>