
<svg xmlns="http://www.w3.org/2000/svg" overflow="visible" viewBox="0 0 19.25 29.74"><defs/><path d="M10.49 4.27c0 1.18 0 1.18 0 0zM14.98 21.2s-.49.03-.77.07c-.21.03-.45.04-.66.04-2.83 0-5.12-2.29-5.12-5.12 0-.21.03-.42.06-.62s.04-.6.04-.6-.01-.47-.04-.58c-.02-.07-.03-.12-.04-.17-.01-.05-.01-.1-.02-.14-.02-.15-.02-.28-.02-.51 0-2.83 2.29-5.12 5.12-5.12.16 0 .32.01.47.03l.75.06c2.36 0 4.27-1.91 4.27-4.27S17.11 0 14.76 0s-4.27 1.91-4.27 4.27c0 0 .03.49.07.77.03.21.04.45.04.66 0 2.83-2.29 5.12-5.12 5.12-.21 0-.42-.03-.62-.06s-.6-.04-.6-.04C1.91 10.71 0 12.62 0 14.98s1.91 4.27 4.27 4.27c.26 0 .51-.03.76-.08.05-.01.09-.01.14-.02 0 0 .28-.02.51-.02 2.83 0 5.12 2.29 5.12 5.12 0 .16-.01.32-.03.47l-.06.75c0 2.36 1.91 4.27 4.27 4.27s4.27-1.91 4.27-4.27-1.91-4.27-4.27-4.27z" fill="#ffffff" /><path d="M4.85 19.21c.07-.02.12-.03.18-.04-.25.04-.5.08-.76.08 0 0 .46-.01.58-.04z" fill="#ffffff"/></svg>