<svg fill="none" xmlns="http://www.w3.org/2000/svg" viewBox="0 0 33 30"><path fill-rule="evenodd" clip-rule="evenodd" d="M23.8 7.1c.7.9 1.3 1.8 1.8 2.9.018.043.039.085.06.124-1.09.669-2.367.363-2.96-.724a.523.523 0 01-.1-.15c-.025-.05-.05-.1-.1-.15l-.2-.5c-.8-1.4-2.6-1.8-4-1s-1.8 2.6-1 4 2.6 1.8 4 1c0 0 .3-.2.4-.3.1-.1.2-.2.4-.3 1.1-.7 2.4-.4 3 .7.05.05.075.125.1.2.025.075.05.15.1.2.1.1.2.4.2.4.8 1.4 2.6 1.8 4 1s1.8-2.6 1-4c-.1-.2-.2-.3-.3-.4 0 0 0-.1-.1-.1 0 0-.1-.2-.2-.3-.7-1.1-.4-2.4.7-3 .05-.05.1-.075.15-.1.05-.025.1-.05.15-.1l.5-.2c1.4-.8 1.8-2.6 1-4s-2.6-1.8-4-1c-1.4.9-1.9 2.7-1 4 0 0 .2.3.3.4.1.1.2.2.3.4.564.887.479 1.903-.152 2.578-.566-1.176-1.223-2.261-2.048-3.178-.9-1.1-1.9-2.1-3.1-2.9-1.2-.8-2.5-1.5-3.8-1.9-1.4-.4-2.8-.7-4.2-.7-1.4 0-2.8.2-4.2.6-1.4.4-2.7 1-3.9 1.8-1.2.8-2.3 1.7-3.2 2.8-.9 1.1-1.6 2.4-2.2 3.7-.6 1.4-.9 2.8-1.1 4.2-.2 1.4-.1 2.9.1 4.3.3 1.4.7 2.8 1.4 4.1.7 1.3 1.6 2.5 2.6 3.5 1.1 1 2.2 1.9 3.6 2.6 1.3.7 2.7 1.2 4.1 1.5 1.5.3 2.9.4 4.4.3 1.5-.1 2.9-.5 4.3-1 1-.4 1.5-1.6 1.1-2.6-.4-1-1.6-1.5-2.6-1.1H19c-1 .4-2 .7-3.1.8-1.1.1-2.2.1-3.3-.1-1.1-.3-2.1-.6-3.1-1.1-1-.5-1.9-1.1-2.7-1.9-.8-.8-1.4-1.6-2-2.6-.6-1-1-2-1.2-3.1-.2-1.1-.3-2.2-.2-3.3.1-1.2.4-2.3.8-3.3s1-2 1.7-2.9c.7-.8 1.5-1.6 2.5-2.3.9-.6 1.9-1.1 3-1.5 1-.3 2.2-.5 3.3-.5 1.2 0 2.3.2 3.4.5s2.1.8 3.1 1.4c1 .7 1.8 1.4 2.6 2.3z" fill="#fff"/></svg>