<svg xmlns="http://www.w3.org/2000/svg" viewBox="0 0 30 25">
    <path
        d="M0 21.686c3.3.3 6.3-.5 9-2.6-1.3-.1-2.5-.5-3.5-1.3s-1.8-1.8-2.2-3c.5 0 .9.1 1.4.1.4 0 .9-.1 1.3-.2-1.4-.3-2.6-1.1-3.5-2.2-.9-1.1-1.4-2.4-1.4-3.9.5.2.9.4 1.4.5.4.1.9.2 1.4.2-1.8-1.3-2.7-3-2.7-5.3 0-1 .3-2 .8-2.9.1.1.2.2.2.3 1.4 1.6 3 2.9 4.8 4 1.7.9 3.4 1.6 5.3 1.9.7.1 1.3.2 2 .3h.2c.2 0 .2 0 .2-.2 0-.4-.1-.9-.1-1.3 0-1.5.5-2.8 1.5-4 1-1.1 2.2-1.8 3.6-2 1.8-.3 3.5.2 4.9 1.3.2.1.3.3.5.5.1.1.1.1.2.1 1.3-.3 2.5-.7 3.6-1.4h.1c-.5 1.4-1.3 2.5-2.6 3.3 1.2-.1 2.3-.5 3.4-.9-.1.1-.1.2-.2.3-.6 1-1.5 1.9-2.6 2.7l-.1.1v1.9c0 .8-.2 1.5-.3 2.3-.3 1.4-.7 2.7-1.4 4-.6 1.4-1.4 2.6-2.4 3.8-.7.9-1.5 1.7-2.4 2.4-1 .8-2.1 1.5-3.3 2.1-1.4.7-2.9 1.2-4.5 1.4-.7.1-1.4.2-2.1.2-.4 0-.7.1-1.1 0-.6 0-1.2 0-1.8-.1-.9-.1-1.7-.2-2.6-.4-1.8-.4-3.4-1.2-4.9-2.1 0 .2 0 .1-.1.1z" />
    </svg>