<svg width="32" height="29" viewBox="0 0 32 29" fill="none" xmlns="http://www.w3.org/2000/svg">
<line x1="1.41421" y1="1.58579" x2="27.4142" y2="27.5858" stroke="white" stroke-width="4"/>
<path fill-rule="evenodd" clip-rule="evenodd" d="M10.1216 5.11613C6.34031 8.87141 5.71557 9.23226 2.98832 9.23226H0V13.3484V17.4645H2.94783C5.62761 17.4645 6.29424 17.8528 10.2773 21.7323L14.6589 26V13.5C14.6589 6.62538 14.5702 1 14.4627 1C14.3545 1 12.4014 2.85226 10.1216 5.11613ZM25.526 2.29658C25.3145 2.63273 25.9965 4.40747 27.0414 6.24121C28.4668 8.74381 28.9408 10.5165 28.9408 13.3484C28.9408 16.1803 28.4668 17.953 27.0414 20.4556C25.9965 22.2893 25.3145 24.064 25.526 24.4002C26.8851 26.5619 30.2238 22.3998 31.5047 16.9466C32.1616 14.149 32.1644 12.5595 31.5173 9.80509C30.168 4.05897 26.9521 0.0285936 25.526 2.29658ZM21.291 6.4868C21.0543 6.86343 21.3496 7.85816 21.9478 8.69785C22.5461 9.53685 23.0354 11.6292 23.0354 13.3484C23.0354 15.0676 22.5461 17.1599 21.9478 17.9989C20.78 19.6371 21.1109 20.8946 22.7094 20.8946C24.2437 20.8946 25.9888 16.8787 25.9888 13.3484C25.9888 8.37542 22.9209 3.89501 21.291 6.4868ZM17.7603 9.98208C16.834 11.4543 16.9198 16.0602 17.8873 16.8498C19.8216 18.4277 21.0662 12.6589 19.3029 10.2887C18.5288 9.24804 18.2559 9.19384 17.7603 9.98208Z" fill="white"/>
</svg>
