<svg width="633" height="6" viewBox="0 0 633 6" fill="none" xmlns="http://www.w3.org/2000/svg">
<path fill-rule="evenodd" clip-rule="evenodd" d="M0 2.66717C0 1.19413 1.19413 0 2.66717 0C3.67265 0 4.54818 0.556381 5.00269 1.37807C5.19389 1.72374 5.52631 2 5.92133 2V2C6.31636 2 6.64878 1.72374 6.83998 1.37807C7.29449 0.556381 8.17002 0 9.1755 0V0C11.2449 0 13.2048 2 15.2742 2H19.939C20.4913 2 20.939 2.44772 20.939 3V3C20.939 3.55228 20.4913 4 19.939 4H14.8425C12.9197 4 11.0983 5.68655 9.1755 5.68655V5.68655C8.32468 5.68655 7.5669 5.28816 7.07854 4.66776C6.78996 4.30115 6.38789 4 5.92134 4V4C5.45478 4 5.05271 4.30116 4.76413 4.66776C4.27577 5.28816 3.51799 5.68655 2.66717 5.68655C1.19413 5.68655 0 4.49241 0 3.01937V2.66717ZM623.666 0C622.193 0 620.998 1.19413 620.998 2.66717V3.01937C620.998 4.49241 622.193 5.68655 623.666 5.68655C625.139 5.68655 626.333 4.49241 626.333 3.01938V2.66717C626.333 1.19413 625.139 0 623.666 0ZM630.332 0C628.859 0 627.665 1.19413 627.665 2.66717V3.01937C627.665 4.49241 628.859 5.68655 630.332 5.68655C631.805 5.68655 633 4.49241 633 3.01938V2.66717C633 1.19413 631.805 0 630.332 0Z" fill="black"/>
</svg>
