<svg fill="none" xmlns="http://www.w3.org/2000/svg" viewBox="0 0 52 53"><path d="M49.73 37.08c.39-.63.75-1.26 1.08-1.9a4.15 4.15 0 00.49-1.92 6.287 6.287 0 00-.61-1.72c-.33-.66-.7-1.31-1.1-2-.4-.69-.77-1.29-1.08-1.9a3.41 3.41 0 01-.46-1.46 2.89 2.89 0 01.49-1.53c.33-.52.7-1.07 1.11-1.63.41-.582.788-1.186 1.13-1.81a4.29 4.29 0 00.52-2.09 4.35 4.35 0 00-.43-1.92 5.458 5.458 0 00-1.14-1.58 5.248 5.248 0 00-1.58-1.04 4.94 4.94 0 00-2-.4 4.83 4.83 0 00-2.36.48 9.473 9.473 0 00-1.51 1.07c-.447.404-.93.768-1.44 1.09a3.75 3.75 0 01-2 .48 4.81 4.81 0 01-2.33-.48 5.32 5.32 0 01-1.6-1.27 5.382 5.382 0 01-1-1.64 4.922 4.922 0 01-.32-1.66 3.74 3.74 0 01.5-1.73c.32-.62.67-1.25 1-1.89.33-.64.72-1.27 1-1.89a3.68 3.68 0 00.49-1.72 4.62 4.62 0 00-.4-1.92 5 5 0 00-1.03-1.62A5.89 5.89 0 0033.5.4a5.07 5.07 0 00-2-.39 5.47 5.47 0 00-2 .37 5 5 0 00-1.68 1 4.859 4.859 0 00-1.14 1.61 5 5 0 00-.4 2 3.77 3.77 0 00.52 1.83c.33.62.68 1.24 1 1.84.32.6.71 1.19 1 1.78a3.4 3.4 0 01.5 1.66 3.58 3.58 0 01-.5 1.78c-.33.58-.67 1.18-1 1.78-.33.6-.72 1.2-1 1.81a3.7 3.7 0 00-.49 1.8c.01.607.179 1.2.49 1.72.33.59.68 1.17 1 1.75.32.58.71 1.17 1 1.75.315.524.487 1.12.5 1.73a3.649 3.649 0 01-.5 1.83c-.33.59-.67 1.17-1 1.75-.33.58-.72 1.17-1 1.75a3.7 3.7 0 00-.49 1.84 3.64 3.64 0 00.49 1.83c.33.59.68 1.18 1 1.78.32.6.71 1.2 1 1.78a3.49 3.49 0 01.5 1.72 3.93 3.93 0 01-.5 1.92c-.33.6-.67 1.18-1 1.72-.33.54-.72 1.1-1 1.67a3.52 3.52 0 00-.49 1.81 4.82 4.82 0 00.4 1.94 5.091 5.091 0 002.74 2.68 4.891 4.891 0 002 .4 5.241 5.241 0 002-.37 5.428 5.428 0 001.68-1 4.887 4.887 0 001.2-1.61 4.81 4.81 0 00.43-2.06 3.379 3.379 0 00-.49-1.58c-.33-.6-.68-1.22-1-1.84-.32-.62-.72-1.25-1-1.89a3.882 3.882 0 01-.5-1.75 3.35 3.35 0 01.5-1.61c.32-.58.67-1.18 1-1.8.33-.62.72-1.26 1-1.9a4.15 4.15 0 00.49-1.92 3.29 3.29 0 00-.49-1.6c-.33-.59-.68-1.2-1-1.84-.32-.64-.72-1.27-1-1.89a3.73 3.73 0 01-.5-1.72 4.55 4.55 0 01.44-2 5 5 0 011.19-1.61 5.81 5.81 0 011.71-1.07 5.108 5.108 0 012-.4 4.16 4.16 0 011.83.43 5.168 5.168 0 011.57 1.12 5.8 5.8 0 011.07 1.61c.273.586.412 1.224.41 1.87a3.89 3.89 0 01-.46 1.72c-.313.62-.646 1.25-1 1.89-.352.64-.686 1.27-1 1.89a3.8 3.8 0 00-.46 1.67c.01.647.168 1.283.46 1.86.314.667.648 1.297 1 1.89.37.62.71 1.22 1 1.78a3.31 3.31 0 01.46 1.58 3.94 3.94 0 01-.46 1.89 18.218 18.218 0 01-1 1.7c-.37.54-.71 1.1-1 1.66a3.84 3.84 0 00-.46 1.87c-.001.67.146 1.333.43 1.94a5.34 5.34 0 001.14 1.61 5.16 5.16 0 001.6 1.07 4.41 4.41 0 001.83.4 5.69 5.69 0 002-.37 5.082 5.082 0 001.72-1 5.66 5.66 0 001.19-1.61 4.55 4.55 0 00.46-2.06 3.46 3.46 0 00-.49-1.64c-.33-.6-.69-1.2-1.08-1.81-.39-.61-.74-1.21-1.07-1.83a3.791 3.791 0 01-.5-1.78 3.35 3.35 0 01.5-1.61c.19-.62.55-1.22.93-1.84zM23.39 22.62a17.54 17.54 0 001.11-1.8 4 4 0 00.49-2 3.54 3.54 0 00-.49-1.81c-.33-.56-.68-1.11-1.06-1.64-.38-.53-.72-1.05-1.05-1.58a3.21 3.21 0 01-.49-1.75 3.54 3.54 0 01.46-1.66c.32-.59.67-1.17 1.06-1.75.37-.583.704-1.187 1-1.81a4.07 4.07 0 00.46-1.84 4.829 4.829 0 00-1.54-3.61 5.089 5.089 0 00-1.7-1 5.47 5.47 0 00-2-.37 5 5 0 00-2 .4 5.69 5.69 0 00-1.66 1.07 4.8 4.8 0 00-1.14 1.58 4.632 4.632 0 00-.41 1.92 4.37 4.37 0 00.47 2c.312.606.663 1.19 1.05 1.75.39.57.74 1.13 1 1.69a3.63 3.63 0 01.47 1.76 5.36 5.36 0 01-1.2 3.3 4.51 4.51 0 01-1.61 1.24 5.35 5.35 0 01-4.43 0 4.51 4.51 0 01-1.61-1.24 5.36 5.36 0 01-1.2-3.3 3.63 3.63 0 01.47-1.76c.31-.56.66-1.12 1.05-1.69.372-.561.706-1.146 1-1.75a4.37 4.37 0 00.47-2 4.63 4.63 0 00-.21-1.91 4.8 4.8 0 00-1.14-1.58A5.69 5.69 0 007.35.41a5 5 0 00-2-.4 5.47 5.47 0 00-2 .37 5.09 5.09 0 00-1.7 1A4.83 4.83 0 00.11 4.99a4.07 4.07 0 00.46 1.84 17.34 17.34 0 001.05 1.81c.39.58.74 1.16 1.06 1.75a3.54 3.54 0 01.46 1.66 3.21 3.21 0 01-.54 1.77c-.33.53-.69 1.06-1.05 1.58-.36.52-.73 1.08-1.06 1.64A3.54 3.54 0 000 18.85a4 4 0 00.49 2c.335.615.706 1.21 1.11 1.78.402.574.772 1.168 1.11 1.78.329.587.501 1.248.5 1.92a3.27 3.27 0 01-.5 1.72c-.33.55-.69 1.1-1.08 1.67-.39.57-.75 1.1-1.08 1.71a3.94 3.94 0 000 3.75c.318.622.669 1.226 1.05 1.81.39.6.74 1.2 1.06 1.78a3.55 3.55 0 010 3.5c-.32.55-.67 1.09-1.06 1.64a13.616 13.616 0 00-1.05 1.72 4.25 4.25 0 00-.46 2 4.53 4.53 0 00.43 1.94c.285.599.67 1.144 1.14 1.61a5.331 5.331 0 001.61 1.07c.579.263 1.206.4 1.84.4a5.56 5.56 0 003.85-1.41 4.712 4.712 0 001.58-3.67 3.11 3.11 0 00-.5-1.61c-.33-.55-.68-1.11-1-1.69-.32-.58-.72-1.19-1.05-1.81a4.1 4.1 0 01-.5-2 3.35 3.35 0 01.5-1.61c.334-.58.684-1.18 1.05-1.8.37-.63.72-1.26 1-1.9.32-.59.491-1.249.5-1.92a5.158 5.158 0 00-.56-1.69c-.33-.68-.69-1.35-1.08-2-.39-.65-.74-1.32-1-1.92a3.41 3.41 0 01-.46-1.47 3.91 3.91 0 01.35-1.44 5.94 5.94 0 011-1.64 5.998 5.998 0 011.63-1.32 4.4 4.4 0 014.33 0c.617.341 1.17.788 1.63 1.32.42.489.759 1.043 1 1.64.208.453.327.942.35 1.44a3.41 3.41 0 01-.58 1.47c-.313.6-.662 1.24-1.05 1.92-.39.68-.75 1.35-1.08 2a4.93 4.93 0 00-.56 1.69c.01.671.182 1.33.5 1.92.33.64.68 1.27 1.05 1.9.37.63.72 1.22 1 1.8a3.35 3.35 0 01.5 1.61 4.1 4.1 0 01-.5 2c-.33.62-.68 1.22-1 1.81-.32.59-.72 1.14-1.05 1.69a3.11 3.11 0 00-.5 1.61 4.71 4.71 0 001.58 3.67 5.56 5.56 0 003.85 1.41c.636 0 1.263-.137 1.84-.4a5.33 5.33 0 001.61-1.07 5.711 5.711 0 001.14-1.61 4.53 4.53 0 00.43-1.94 4.249 4.249 0 00-.46-2 13.606 13.606 0 00-1-1.72c-.39-.55-.74-1.09-1.06-1.64a3.55 3.55 0 01-.46-1.78 3.64 3.64 0 01.43-1.67c.32-.58.67-1.18 1.06-1.78.366-.585.7-1.19 1-1.81a3.94 3.94 0 000-3.75c-.33-.58-.69-1.16-1.08-1.72-.39-.56-.75-1.12-1.08-1.67a3.27 3.27 0 01-.5-1.72c0-.672.173-1.333.5-1.92.345-.63.722-1.24 1.13-1.83z" fill="#F9F9F9"/></svg>