<svg xmlns="http://www.w3.org/2000/svg" width="1518.73" height="405" viewBox="0 0 1518.73 405" overflow="visible"><path d="M382.79 176.94c2.98-4.34 5.74-8.91 8.28-13.68 2.53-4.78 3.8-10.06 3.8-15.85 0-5.21-1.12-10.13-3.36-14.77-2.24-4.63-5.15-8.69-8.72-12.16-3.58-3.48-7.76-6.22-12.53-8.25-4.77-2.02-9.84-3.04-15.21-3.04-8.05 0-14.25 1.24-18.57 3.69-4.33 2.46-8.13 5.21-11.41 8.25-3.29 3.04-6.86 5.8-10.74 8.25-3.88 2.46-9.4 3.69-16.55 3.69-5.97 0-11.11-1.23-15.43-3.69-4.33-2.46-8.5-5.21-12.53-8.25a116.63 116.63 0 00-12.53-8.25c-4.33-2.46-9.32-3.69-14.99-3.69-10.74 0-20.06 3.55-27.96 10.64-7.91 7.1-11.86 16.58-11.86 28.45 0 4.34 1.26 8.76 3.8 13.25 2.53 4.49 5.21 8.98 8.05 13.47 2.83 4.49 5.52 8.98 8.05 13.47 2.53 4.49 3.8 8.91 3.8 13.25 0 4.93-1.27 9.63-3.8 14.12-2.54 4.49-5.22 8.98-8.05 13.47a308.49 308.49 0 00-8.05 13.47c-2.54 4.49-3.8 9.2-3.8 14.12 0 4.93 1.26 9.63 3.8 14.12 2.53 4.49 5.21 9.05 8.05 13.68 2.83 4.64 5.52 9.2 8.05 13.68 2.53 4.49 3.8 8.91 3.8 13.25 0 5.21-1.27 10.14-3.8 14.77-2.54 4.64-5.22 9.05-8.05 13.25-2.84 4.2-5.52 8.47-8.05 12.81-2.54 4.34-3.8 8.98-3.8 13.9 0 5.21 1.04 10.21 3.13 14.99 2.08 4.78 4.92 8.91 8.5 12.38 3.58 3.47 7.75 6.23 12.53 8.25 4.77 2.03 9.84 3.04 15.21 3.04 5.66 0 10.88-1.23 15.66-3.69 4.77-2.46 9.24-5.21 13.42-8.25 4.17-3.04 8.35-5.86 12.53-8.47 4.17-2.61 8.65-3.91 13.42-3.91 4.47 0 9.09 1.3 13.87 3.91 4.77 2.61 9.62 5.43 14.54 8.47 4.92 3.04 9.77 5.8 14.54 8.25 4.77 2.46 9.4 3.69 13.87 3.69 11.03 0 20.65-3.62 28.86-10.86 8.2-7.24 12.3-16.65 12.3-28.24 0-3.76-1.27-7.96-3.8-12.6-2.54-4.63-5.3-9.26-8.28-13.9a192.54 192.54 0 01-8.28-14.12c-2.54-4.78-3.8-9.34-3.8-13.68 0-3.76 1.27-7.89 3.8-12.38 2.53-4.49 5.29-9.12 8.28-13.9 2.98-4.78 5.74-9.62 8.28-14.55 2.53-4.92 3.8-9.84 3.8-14.77-.3-3.76-1.72-8.04-4.25-12.81-2.54-4.78-5.3-9.56-8.28-14.34-2.99-4.78-5.67-9.48-8.05-14.12-2.39-4.63-3.58-8.97-3.58-13.03 0-4.05 1.27-8.1 3.8-12.16 2.54-4.07 5.31-8.27 8.29-12.62zm-64.42 95.35c2.38 4.49 4.99 8.91 7.83 13.25 2.83 4.34 5.44 8.69 7.83 13.03 2.38 4.34 3.58 8.69 3.58 13.03 0 4.93-1.12 9.85-3.36 14.77-2.24 4.93-5.3 9.27-9.17 13.03-3.88 3.77-8.35 6.81-13.42 9.12-5.08 2.32-10.44 3.48-16.11 3.48-5.37 0-10.29-1.37-14.76-4.13a43.589 43.589 0 01-11.63-10.43c-3.28-4.19-5.82-8.61-7.61-13.25-1.79-4.63-2.68-8.83-2.68-12.6 0-3.76 1.27-7.89 3.8-12.38 2.53-4.49 5.21-9.12 8.05-13.9 2.83-4.78 5.52-9.62 8.05-14.55 2.53-4.92 3.8-9.84 3.8-14.77 0-3.48-1.27-7.67-3.8-12.6-2.54-4.92-5.3-9.99-8.28-15.2a525.25 525.25 0 01-8.28-14.99c-2.54-4.78-3.8-8.76-3.8-11.95 0-3.18.89-6.95 2.68-11.29 1.79-4.34 4.4-8.54 7.83-12.6 3.42-4.05 7.53-7.45 12.3-10.21 4.77-2.75 10.14-4.13 16.11-4.13 5.37 0 10.51 1.02 15.43 3.04 4.92 2.03 9.17 4.78 12.75 8.25 3.58 3.48 6.49 7.6 8.72 12.38 2.24 4.78 3.36 9.77 3.36 14.99 0 4.64-1.2 9.2-3.58 13.68-2.39 4.49-5 8.98-7.83 13.47a176.75 176.75 0 00-7.83 13.68c-2.39 4.64-3.58 9.41-3.58 14.34v1.74c.02 4.66 1.21 9.22 3.6 13.7zm-138.36-98.25c3.15-4.49 6-9.05 8.54-13.69 2.55-4.63 3.82-9.7 3.82-15.21 0-4.92-1.27-9.56-3.82-13.91-2.54-4.35-5.24-8.54-8.09-12.6-2.84-4.05-5.54-8.11-8.09-12.17-2.54-4.05-3.82-8.54-3.82-13.47 0-4.05 1.2-8.32 3.59-12.82 2.4-4.49 5.1-8.98 8.09-13.47 3-4.49 5.7-9.13 8.09-13.91 2.4-4.78 3.6-9.49 3.6-14.12 0-5.5-1.05-10.65-3.15-15.43-2.09-4.78-5.01-8.91-8.76-12.38-3.74-3.48-8.09-6.15-13.03-8.04C162.03.94 156.86 0 151.47 0c-5.39 0-10.49 1.02-15.28 3.04-4.79 2.03-9.06 4.78-12.81 8.26a37.796 37.796 0 00-8.76 12.17c-2.09 4.64-3.15 9.56-3.15 14.77 0 5.8 1.2 11.01 3.6 15.64 2.4 4.64 5.1 9.13 8.09 13.47 3 4.35 5.7 8.69 8.09 13.04 2.4 4.35 3.6 8.84 3.6 13.47 0 4.06-.74 8.33-2.25 12.82-1.5 4.49-3.82 8.69-6.97 12.6s-7.26 7.1-12.36 9.56c-4.87 2.36-10.56 3.58-17.08 3.69-6.52-.1-12.21-1.33-17.08-3.69-5.1-2.46-9.21-5.65-12.36-9.56-3.15-3.91-5.47-8.11-6.97-12.6s-2.25-8.76-2.25-12.82c0-4.63 1.19-9.13 3.59-13.47 2.39-4.35 5.09-8.69 8.09-13.04C72.2 63 74.9 58.52 77.3 53.88c2.39-4.63 3.6-9.85 3.6-15.64 0-5.21-1.05-10.14-3.15-14.77-2.1-4.63-5.02-8.69-8.76-12.17-3.75-3.48-8.02-6.23-12.81-8.26C51.39 1.02 46.29 0 40.9 0S30.34.94 25.39 2.82c-4.94 1.89-9.29 4.56-13.03 8.04-3.75 3.48-6.67 7.6-8.76 12.38C1.5 28.02.45 33.17.45 38.67c0 4.64 1.19 9.34 3.6 14.12 2.39 4.78 5.09 9.42 8.09 13.91 2.99 4.49 5.69 8.98 8.09 13.47 2.39 4.5 3.59 8.77 3.59 12.82 0 4.93-1.28 9.42-3.82 13.47a294.78 294.78 0 01-8.09 12.17c-2.85 4.06-5.55 8.26-8.09 12.6C1.27 135.58 0 140.22 0 145.14c0 5.51 1.27 10.58 3.82 15.21 2.54 4.64 5.39 9.2 8.54 13.69 3.15 4.5 5.99 9.06 8.54 13.69 2.54 4.64 3.82 9.56 3.82 14.78 0 4.64-1.28 9.06-3.82 13.25-2.55 4.2-5.32 8.47-8.32 12.82s-5.77 8.77-8.32 13.25c-2.55 4.49-3.82 9.49-3.82 14.99 0 4.64 1.19 9.28 3.6 13.91 2.39 4.64 5.09 9.27 8.09 13.91 2.99 4.64 5.69 9.2 8.09 13.69 2.39 4.5 3.59 8.91 3.59 13.25 0 4.93-1.2 9.49-3.59 13.69-2.4 4.2-5.1 8.41-8.09 12.6-3 4.2-5.7 8.62-8.09 13.25-2.4 4.64-3.6 9.71-3.6 15.21 0 5.21 1.12 10.21 3.37 14.99 2.25 4.78 5.17 8.91 8.76 12.38 3.6 3.48 7.71 6.23 12.36 8.26 4.64 2.03 9.36 3.04 14.16 3.04 11.69 0 21.57-3.62 29.66-10.86 8.09-7.24 12.13-16.66 12.13-28.25 0-4.05-1.28-8.18-3.82-12.38-2.55-4.2-5.25-8.54-8.09-13.04-2.85-4.49-5.55-9.13-8.09-13.91-2.55-4.78-3.82-9.78-3.82-14.99 0-3.76 1.27-7.89 3.82-12.38 2.54-4.49 5.24-9.13 8.09-13.91 2.84-4.78 5.54-9.63 8.09-14.56 2.54-4.92 3.82-9.85 3.82-14.77-.3-3.48-1.73-7.82-4.27-13.04-2.55-5.21-5.32-10.43-8.32-15.64-3-5.21-5.7-10.14-8.09-14.77-2.4-4.63-3.6-8.4-3.6-11.3 0-2.89.9-6.59 2.7-11.08 1.8-4.49 4.34-8.69 7.64-12.6 3.29-3.91 7.49-7.31 12.58-10.21 4.86-2.76 10.4-4.21 16.63-4.34 6.23.13 11.77 1.58 16.63 4.34 5.1 2.9 9.29 6.3 12.58 10.21 3.3 3.91 5.84 8.11 7.64 12.6 1.8 4.5 2.7 8.19 2.7 11.08 0 2.9-1.19 6.67-3.6 11.3-2.39 4.64-5.09 9.56-8.09 14.77-2.99 5.22-5.77 10.43-8.32 15.64-2.54 5.22-3.97 9.56-4.27 13.04 0 4.93 1.28 9.85 3.82 14.77 2.55 4.93 5.25 9.78 8.09 14.56 2.85 4.78 5.55 9.42 8.09 13.91 2.55 4.49 3.82 8.62 3.82 12.38 0 5.22-1.27 10.21-3.82 14.99-2.54 4.78-5.24 9.42-8.09 13.91-2.84 4.49-5.54 8.84-8.09 13.04-2.54 4.2-3.82 8.33-3.82 12.38 0 11.59 4.04 21.01 12.14 28.25 8.09 7.24 17.98 10.86 29.66 10.86 4.8 0 9.52-1.01 14.16-3.04 4.65-2.02 8.76-4.78 12.36-8.26 3.6-3.48 6.52-7.6 8.76-12.38 2.25-4.78 3.37-9.78 3.37-14.99 0-5.5-1.19-10.57-3.6-15.21-2.39-4.63-5.09-9.05-8.09-13.25-2.99-4.2-5.69-8.4-8.09-12.6-2.39-4.2-3.59-8.76-3.59-13.69 0-4.35 1.2-8.76 3.59-13.25 2.4-4.49 5.1-9.05 8.09-13.69 3-4.63 5.7-9.27 8.09-13.91 2.4-4.63 3.6-9.27 3.6-13.91 0-5.5-1.27-10.5-3.82-14.99-2.54-4.49-5.32-8.91-8.32-13.25-2.99-4.35-5.77-8.62-8.32-12.82-2.54-4.2-3.82-8.62-3.82-13.25 0-5.22 1.28-10.14 3.82-14.78 2.61-4.63 5.46-9.2 8.6-13.69zm515.98 3.26c3.13-4.35 6.04-8.98 8.72-13.91 2.68-4.92 4.03-10.28 4.03-16.08 0-5.22-1.12-10.14-3.36-14.78-2.24-4.63-5.15-8.69-8.72-12.17-3.58-3.48-7.76-6.23-12.53-8.26-4.77-2.02-9.84-3.04-15.21-3.04-7.76 0-13.8 1.24-18.12 3.69-4.33 2.47-8.21 5.22-11.63 8.26-3.43 3.04-7.09 5.8-10.96 8.26-3.88 2.46-9.1 3.69-15.66 3.69-6.86 0-12.75-1.3-17.67-3.91-4.92-2.61-9.02-5.87-12.3-9.78-3.29-3.91-5.75-8.11-7.38-12.6-1.64-4.49-2.46-8.76-2.46-12.82 0-4.05 1.27-8.47 3.8-13.25 2.53-4.78 5.21-9.63 8.05-14.56 2.83-4.92 5.52-9.78 8.05-14.56 2.53-4.78 3.8-9.19 3.8-13.25 0-5.21-1.05-10.14-3.13-14.77-2.09-4.63-5-8.69-8.72-12.17-3.73-3.48-7.98-6.23-12.75-8.26C567.07 1.02 562.23 0 556.87 0h-.4c-5.39 0-10.49 1.02-15.28 3.04-4.79 2.03-9.06 4.78-12.81 8.26a37.976 37.976 0 00-8.77 12.17c-2.09 4.64-3.15 9.56-3.15 14.77 0 5.8 1.2 11.01 3.6 15.64 2.4 4.64 5.1 9.13 8.09 13.47 3 4.35 5.7 8.69 8.09 13.04 2.4 4.35 3.59 8.84 3.59 13.47 0 4.06-.74 8.33-2.25 12.82-1.5 4.49-3.82 8.69-6.97 12.6s-7.26 7.1-12.36 9.56c-4.87 2.36-10.56 3.58-17.08 3.69-6.52-.1-12.21-1.33-17.08-3.69-5.1-2.46-9.21-5.65-12.36-9.56-3.15-3.91-5.47-8.11-6.97-12.6s-2.25-8.76-2.25-12.82c0-4.63 1.19-9.13 3.6-13.47 2.39-4.35 5.09-8.69 8.09-13.04 2.99-4.35 5.69-8.83 8.09-13.47 2.39-4.63 3.6-9.85 3.6-15.64 0-5.21-1.05-10.14-3.15-14.77-2.1-4.63-5.02-8.69-8.76-12.17-3.75-3.48-8.02-6.23-12.81-8.26C456.38 1.02 451.29 0 445.9 0c-5.39 0-10.56.94-15.51 2.82-4.94 1.89-9.29 4.56-13.03 8.04-3.75 3.48-6.67 7.6-8.76 12.38-2.1 4.78-3.15 9.93-3.15 15.43 0 4.64 1.19 9.34 3.6 14.12 2.39 4.78 5.09 9.42 8.09 13.91 2.99 4.49 5.69 8.98 8.09 13.47 2.39 4.5 3.6 8.77 3.6 12.82 0 4.93-1.28 9.42-3.82 13.47a294.78 294.78 0 01-8.09 12.17c-2.85 4.06-5.55 8.26-8.09 12.6-2.55 4.35-3.82 8.98-3.82 13.91 0 5.51 1.27 10.58 3.82 15.21 2.54 4.64 5.39 9.2 8.54 13.69 3.15 4.5 5.99 9.06 8.54 13.69 2.54 4.64 3.82 9.56 3.82 14.78 0 4.64-1.28 9.06-3.82 13.25-2.55 4.2-5.32 8.47-8.32 12.82s-5.77 8.77-8.31 13.25c-2.55 4.49-3.82 9.49-3.82 14.99 0 4.64 1.19 9.28 3.6 13.91 2.39 4.64 5.09 9.27 8.09 13.91 2.99 4.64 5.69 9.2 8.09 13.69 2.39 4.5 3.6 8.91 3.6 13.25 0 4.93-1.2 9.49-3.6 13.69-2.4 4.2-5.1 8.41-8.09 12.6-3 4.2-5.7 8.62-8.09 13.25-2.4 4.64-3.6 9.71-3.6 15.21 0 5.21 1.12 10.21 3.37 14.99 2.25 4.78 5.17 8.91 8.76 12.38 3.6 3.48 7.71 6.23 12.36 8.26 4.64 2.03 9.36 3.04 14.16 3.04 11.69 0 21.57-3.62 29.66-10.86 8.09-7.24 12.14-16.66 12.14-28.25 0-4.05-1.28-8.18-3.82-12.38-2.55-4.2-5.25-8.54-8.09-13.04-2.85-4.49-5.55-9.13-8.09-13.91-2.55-4.78-3.82-9.78-3.82-14.99 0-3.76 1.27-7.89 3.82-12.38 2.54-4.49 5.24-9.13 8.09-13.91 2.84-4.78 5.54-9.63 8.09-14.56 2.54-4.92 3.82-9.85 3.82-14.77-.3-3.48-1.73-7.82-4.27-13.04-2.55-5.21-5.32-10.43-8.32-15.64-3-5.21-5.7-10.14-8.09-14.77-2.4-4.63-3.6-8.4-3.6-11.3 0-2.89.9-6.59 2.7-11.08 1.8-4.49 4.34-8.69 7.64-12.6 3.29-3.91 7.49-7.31 12.58-10.21 4.86-2.76 10.4-4.21 16.63-4.34 6.23.13 11.77 1.58 16.63 4.34 5.1 2.9 9.29 6.3 12.58 10.21 3.3 3.91 5.84 8.11 7.64 12.6 1.8 4.5 2.7 8.19 2.7 11.08 0 2.9-1.19 6.67-3.6 11.3-2.39 4.64-5.09 9.56-8.09 14.77-2.99 5.22-5.77 10.43-8.32 15.64-2.54 5.22-3.97 9.56-4.27 13.04 0 4.93 1.28 9.85 3.82 14.77 2.55 4.93 5.25 9.78 8.09 14.56 2.85 4.78 5.55 9.42 8.09 13.91 2.55 4.49 3.82 8.62 3.82 12.38 0 5.22-1.27 10.21-3.82 14.99-2.54 4.78-5.24 9.42-8.09 13.91-2.84 4.49-5.54 8.84-8.09 13.04-2.54 4.2-3.82 8.33-3.82 12.38 0 11.59 4.05 21.01 12.14 28.25 8.09 7.24 16.58 10.86 28.27 10.86 5.37 0 9.31-.94 14.08-2.82s9.09-4.56 12.97-8.04c3.87-3.48 6.93-7.6 9.17-12.38s3.36-10.06 3.36-15.86c0-3.48-1.27-7.53-3.8-12.17-2.54-4.63-5.22-9.34-8.05-14.12-2.84-4.78-5.52-9.63-8.05-14.56-2.54-4.92-3.8-9.41-3.8-13.47 0-3.76 1.27-7.89 3.8-12.38 2.53-4.49 5.21-9.13 8.05-13.91 2.83-4.78 5.52-9.63 8.05-14.56 2.53-4.92 3.8-9.85 3.8-14.77 0-3.76-1.27-7.89-3.8-12.38-2.54-4.49-5.22-9.19-8.05-14.12-2.84-4.92-5.52-9.78-8.05-14.56-2.54-4.78-3.8-9.19-3.8-13.25 0-5.21 1.12-10.21 3.36-14.99 2.24-4.78 5.29-8.91 9.17-12.38 3.87-3.48 8.28-6.23 13.2-8.26a40.273 40.273 0 0115.43-3.04c4.77 0 9.46 1.09 14.09 3.26 4.62 2.17 8.65 5.07 12.08 8.69 3.43 3.63 6.19 7.75 8.28 12.38 2.08 4.64 3.13 9.42 3.13 14.34 0 4.06-1.2 8.47-3.58 13.25-2.39 4.78-5 9.64-7.83 14.56-2.84 4.93-5.45 9.78-7.83 14.56-2.39 4.78-3.58 9.06-3.58 12.82 0 4.64 1.19 9.42 3.58 14.34 2.38 4.93 4.99 9.78 7.83 14.56 2.83 4.78 5.44 9.34 7.83 13.69 2.38 4.35 3.58 8.41 3.58 12.17 0 5.22-1.2 10.07-3.58 14.56-2.39 4.49-5 8.84-7.83 13.04-2.84 4.2-5.45 8.47-7.83 12.82-2.39 4.35-3.58 9.13-3.58 14.34s1.12 10.21 3.36 14.99c2.24 4.78 5.15 8.91 8.72 12.38 3.58 3.48 7.68 6.23 12.3 8.26 4.62 2.03 9.32 3.04 14.09 3.04 5.37 0 10.58-.94 15.66-2.82 5.07-1.88 9.46-4.56 13.2-8.04 3.73-3.48 6.78-7.6 9.17-12.38 2.38-4.78 3.58-10.06 3.58-15.86 0-3.76-1.27-7.96-3.8-12.6-2.54-4.63-5.3-9.27-8.28-13.91a192.54 192.54 0 01-8.28-14.12c-2.54-4.78-3.8-9.34-3.8-13.69 0-3.76 1.27-7.89 3.8-12.38 2.53-4.49 5.29-9.13 8.28-13.91 2.98-4.78 5.74-9.63 8.28-14.56 2.53-4.92 3.8-9.85 3.8-14.77-.6-3.76-2.17-8.18-4.7-13.25-2.54-5.07-5.37-10.14-8.5-15.21s-5.89-9.92-8.28-14.56c-2.39-4.63-3.58-8.4-3.58-11.3 0-3.76 1.26-7.67 3.8-11.73 2.54-4.1 5.38-8.3 8.51-12.64zm405.66-1.66c2.98-4.63 5.74-9.34 8.28-14.12 2.53-4.78 3.8-9.19 3.8-13.25 0-11.58-4.1-20.99-12.3-28.24-8.21-7.24-17.83-10.86-28.86-10.86-5.08 0-9.92.94-14.54 2.82a38.133 38.133 0 00-12.3 8.04 43.585 43.585 0 00-8.72 11.95c-2.24 4.49-3.36 9.34-3.36 14.55 0 5.8 1.19 11.08 3.58 15.86 2.38 4.78 4.99 9.41 7.83 13.9 2.83 4.49 5.44 8.76 7.83 12.81 2.38 4.06 3.58 8.25 3.58 12.6 0 4.34-1.2 8.84-3.58 13.47-2.39 4.64-5 9.27-7.83 13.9-2.84 4.64-5.45 9.27-7.83 13.9-2.39 4.64-3.58 9.27-3.58 13.9 0 4.34 1.19 8.84 3.58 13.47 2.38 4.64 4.99 9.34 7.83 14.12 2.83 4.78 5.44 9.41 7.83 13.9 2.38 4.49 3.58 8.91 3.58 13.25 0 4.64-1.05 9.34-3.13 14.12-2.09 4.78-4.92 9.12-8.5 13.03s-7.61 7.1-12.08 9.56c-4.47 2.46-8.95 3.69-13.42 3.69-5.37 0-10.59-1.09-15.66-3.26s-9.47-5.14-13.2-8.91c-3.73-3.76-6.79-8.1-9.17-13.03-2.39-4.92-3.58-9.99-3.58-15.2 0-3.76 1.27-7.96 3.8-12.6 2.53-4.63 5.21-9.34 8.05-14.12 2.83-4.78 5.52-9.56 8.05-14.34 2.53-4.78 3.8-9.34 3.8-13.68 0-3.76-1.27-8.04-3.8-12.81-2.54-4.78-5.22-9.62-8.05-14.55-2.84-4.92-5.52-9.77-8.05-14.55-2.54-4.78-3.8-9.19-3.8-13.25 0-3.76 1.27-7.89 3.8-12.38 2.53-4.49 5.21-9.12 8.05-13.9 2.83-4.78 5.52-9.48 8.05-14.12 2.53-4.63 3.8-8.97 3.8-13.03 0-12.16-4.03-21.72-12.08-28.67-8.05-6.95-17.45-10.43-28.18-10.43-10.74 0-20.06 3.48-27.96 10.43-7.91 6.95-11.86 16.51-11.86 28.67 0 4.06 1.26 8.4 3.8 13.03 2.53 4.64 5.21 9.34 8.05 14.12 2.83 4.78 5.51 9.41 8.05 13.9 2.53 4.49 3.8 8.62 3.8 12.38 0 4.64-1.27 9.27-3.8 13.9-2.54 4.64-5.22 9.2-8.05 13.68a248.4 248.4 0 00-8.05 13.68c-2.54 4.64-3.8 9.27-3.8 13.9 0 4.64 1.26 9.27 3.8 13.9 2.53 4.64 5.21 9.27 8.05 13.9 2.83 4.64 5.51 9.2 8.05 13.68 2.53 4.49 3.8 8.91 3.8 13.25s-1.27 8.84-3.8 13.47c-2.54 4.64-5.22 9.27-8.05 13.9-2.84 4.64-5.52 9.2-8.05 13.68-2.54 4.49-3.8 8.91-3.8 13.25 0 5.5 1.04 10.64 3.13 15.42 2.08 4.78 4.99 8.91 8.72 12.38 3.73 3.47 7.98 6.23 12.75 8.25 4.77 2.03 9.84 3.04 15.21 3.04 3.87 0 8.28-1.23 13.2-3.69s9.91-5.14 14.99-8.04c5.07-2.89 9.99-5.57 14.76-8.04 4.77-2.46 9.24-3.69 13.42-3.69 4.47 0 8.72 1.24 12.75 3.69 4.03 2.46 8.28 5.14 12.75 8.04 4.47 2.9 9.09 5.58 13.87 8.04 4.77 2.46 9.99 3.69 15.66 3.69 11.33 0 21.03-3.76 29.08-11.29 8.05-7.53 12.08-16.79 12.08-27.8 0-3.76-1.27-7.96-3.8-12.6-2.54-4.63-5.3-9.26-8.28-13.9a192.54 192.54 0 01-8.28-14.12c-2.54-4.78-3.8-9.34-3.8-13.68s1.27-8.54 3.8-12.6c2.53-4.05 5.29-8.25 8.28-12.6 2.98-4.34 5.74-8.91 8.28-13.68 2.53-4.78 3.8-10.06 3.8-15.85 0-5.5-1.27-10.64-3.8-15.42-2.54-4.78-5.3-9.41-8.28-13.9-2.98-4.49-5.75-8.83-8.28-13.03-2.54-4.19-3.8-8.47-3.8-12.81 0-3.76 1.27-7.89 3.8-12.38 2.55-4.49 5.31-9.05 8.29-13.69zm202.5 110.77c2.98-4.34 5.74-8.91 8.28-13.68 2.53-4.78 3.8-10.06 3.8-15.85 0-5.21-1.12-10.13-3.36-14.77a46.11 46.11 0 00-8.72-12.38c-3.58-3.62-7.76-6.52-12.53-8.69s-9.84-3.26-15.21-3.26c-6.26 0-11.56 1.3-15.88 3.91-4.33 2.61-8.43 5.43-12.3 8.47-3.88 3.04-7.98 5.8-12.3 8.25-4.33 2.46-9.62 3.69-15.88 3.69-7.16 0-13.27-1.37-18.34-4.13-5.07-2.75-9.17-6.22-12.3-10.43-3.13-4.19-5.45-8.61-6.93-13.25-1.5-4.63-2.24-8.83-2.24-12.6 0-4.92 1.12-9.7 3.35-14.34a43.38 43.38 0 018.95-12.38c3.73-3.62 7.98-6.52 12.75-8.69s9.69-3.26 14.76-3.26c4.47 0 8.72 1.16 12.75 3.48 4.03 2.32 8.28 4.93 12.75 7.82 4.47 2.9 9.17 5.5 14.09 7.82 4.92 2.32 10.51 3.48 16.78 3.48 5.37 0 10.36-1.01 14.99-3.04 4.62-2.02 8.65-4.78 12.08-8.25 3.43-3.48 6.19-7.45 8.28-11.95 2.08-4.49 3.13-9.19 3.13-14.12a37.2 37.2 0 00-3.13-14.99c-2.09-4.78-4.85-8.9-8.28-12.38-3.43-3.48-7.46-6.22-12.08-8.25-4.63-2.02-9.62-3.04-14.99-3.04-4.77 0-9.55 1.24-14.32 3.69-4.77 2.46-9.55 5.14-14.32 8.04-4.77 2.9-9.47 5.58-14.09 8.04-4.63 2.46-9.17 3.69-13.65 3.69-5.97 0-11.18-1.23-15.66-3.69-4.47-2.46-8.72-5.21-12.75-8.25a116.63 116.63 0 00-12.53-8.25c-4.33-2.46-9.47-3.69-15.43-3.69-10.74 0-20.06 3.55-27.96 10.64-7.91 7.1-11.86 16.58-11.86 28.45 0 4.34 1.26 8.76 3.8 13.25 2.53 4.49 5.21 8.98 8.05 13.47 2.83 4.49 5.52 8.98 8.05 13.47 2.53 4.49 3.8 8.91 3.8 13.25 0 5.21-1.27 10.14-3.8 14.77-2.54 4.64-5.22 9.12-8.05 13.47-2.84 4.34-5.52 8.69-8.05 13.03-2.54 4.34-3.8 8.98-3.8 13.9 0 5.21 1.04 10.21 3.13 14.99 2.08 4.78 4.92 8.91 8.5 12.38 3.58 3.47 7.75 6.3 12.53 8.47 4.77 2.17 9.84 3.26 15.21 3.26 4.17 0 8.79-1.23 13.87-3.69 5.07-2.46 10.21-5.14 15.43-8.04 5.22-2.89 10.36-5.57 15.43-8.04 5.07-2.46 9.69-3.69 13.87-3.69 5.37 0 10.29 1.23 14.76 3.69 4.47 2.46 8.35 5.58 11.63 9.34 3.28 3.77 5.89 8.04 7.83 12.81 1.94 4.78 2.91 9.49 2.91 14.12 0 5.21-.97 10.14-2.91 14.77-1.94 4.64-4.7 8.76-8.28 12.38-3.58 3.62-7.76 6.52-12.53 8.69s-9.84 3.26-15.21 3.26c-5.37 0-10.37-1.23-14.99-3.69-4.63-2.46-9.17-5.21-13.65-8.25-4.47-3.04-9.1-5.79-13.87-8.25s-9.84-3.69-15.21-3.69c-9.84 0-18.5 3.69-25.95 11.08-7.46 7.39-11.49 16.44-12.08 27.15v2.17c0 4.64 1.04 9.12 3.13 13.47 2.08 4.34 4.92 8.25 8.5 11.73 3.58 3.48 7.75 6.23 12.53 8.25 4.77 2.03 9.84 3.04 15.21 3.04 5.37 0 10.44-1.23 15.21-3.69 4.77-2.46 9.4-5.06 13.87-7.82 4.47-2.75 8.95-5.36 13.42-7.82 4.47-2.46 9.09-3.69 13.87-3.69 6.56 0 12.08 1.24 16.55 3.69 4.47 2.46 8.65 5.14 12.53 8.04 3.87 2.9 7.83 5.58 11.86 8.04 4.03 2.46 8.72 3.69 14.09 3.69 11.03 0 20.65-3.62 28.86-10.86 8.2-7.24 12.3-16.65 12.3-28.24 0-3.76-1.27-7.96-3.8-12.6-2.54-4.63-5.3-9.26-8.28-13.9a192.54 192.54 0 01-8.28-14.12c-2.54-4.78-3.8-9.34-3.8-13.68s1.27-8.54 3.8-12.6c2.57-4.07 5.33-8.28 8.31-12.62zm90.65-2.17c3.58-3.48 7.75-6.3 12.53-8.47 4.77-2.17 9.84-3.26 15.21-3.26 5.37 0 10.21 1.23 14.54 3.69 4.32 2.46 8.57 5.14 12.75 8.04 4.17 2.9 8.42 5.58 12.75 8.04 4.32 2.46 9.17 3.69 14.54 3.69 5.66 0 10.96-1.09 15.88-3.26s9.32-5.06 13.2-8.69a40.84 40.84 0 009.17-12.6c2.24-4.78 3.36-9.77 3.36-14.99 0-3.76-1.34-8.1-4.03-13.03-2.68-4.92-5.59-9.99-8.72-15.2-3.13-5.21-5.97-10.21-8.5-14.99-2.54-4.78-3.8-8.76-3.8-11.95 0-3.76 1.26-7.67 3.8-11.73 2.53-4.05 5.37-8.25 8.5-12.6 3.13-4.34 6.04-8.91 8.72-13.68 2.68-4.78 4.03-10.06 4.03-15.85 0-5.21-1.12-10.13-3.36-14.77-2.24-4.63-5.15-8.69-8.72-12.16-3.58-3.48-7.76-6.22-12.53-8.25-4.77-2.02-9.84-3.04-15.21-3.04-7.16 0-12.9 1.24-17.22 3.69a87.417 87.417 0 00-12.08 8.25c-3.73 3.04-7.61 5.8-11.63 8.25-4.03 2.46-9.17 3.69-15.43 3.69-5.07 0-9.7-1.23-13.87-3.69-4.18-2.46-8.43-5.21-12.75-8.25a117.97 117.97 0 00-13.64-8.25c-4.77-2.46-10.14-3.69-16.11-3.69-10.74 0-20.06 3.55-27.96 10.64-7.91 7.1-11.86 16.58-11.86 28.45 0 4.34 1.26 8.76 3.8 13.25 2.53 4.49 5.21 8.98 8.05 13.47 2.83 4.49 5.52 8.98 8.05 13.47 2.53 4.49 3.8 8.91 3.8 13.25 0 4.93-1.27 9.63-3.8 14.12-2.54 4.49-5.22 8.98-8.05 13.47a308.49 308.49 0 00-8.05 13.47c-2.54 4.49-3.8 9.2-3.8 14.12 0 4.93 1.26 9.63 3.8 14.12 2.53 4.49 5.21 9.05 8.05 13.68 2.83 4.64 5.52 9.2 8.05 13.68 2.53 4.49 3.8 8.91 3.8 13.25 0 5.21-1.27 10.14-3.8 14.77-2.54 4.64-5.22 9.05-8.05 13.25-2.84 4.2-5.52 8.47-8.05 12.81-2.54 4.34-3.8 8.98-3.8 13.9 0 5.21 1.04 10.21 3.13 14.99 2.08 4.78 4.92 8.91 8.5 12.38 3.58 3.47 7.75 6.23 12.53 8.25 4.77 2.03 9.84 3.04 15.21 3.04 6.86 0 12.67-1.23 17.45-3.69 4.77-2.46 9.02-5.21 12.75-8.25 3.73-3.04 7.53-5.86 11.41-8.47 3.87-2.61 8.35-3.91 13.42-3.91 4.17 0 8.79 1.23 13.87 3.69 5.07 2.46 10.21 5.21 15.43 8.25 5.21 3.04 10.29 5.8 15.21 8.25 4.92 2.46 9.46 3.69 13.65 3.69 5.37 0 10.36-1.01 14.99-3.04 4.62-2.02 8.65-4.85 12.08-8.47 3.43-3.62 6.19-7.74 8.28-12.38 2.08-4.63 3.13-9.56 3.13-14.77 0-5.21-1.05-10.13-3.13-14.77-2.09-4.63-4.85-8.69-8.28-12.16-3.43-3.48-7.46-6.22-12.08-8.25-4.63-2.02-9.62-3.04-14.99-3.04-4.77 0-9.55 1.23-14.32 3.69s-9.55 5.21-14.32 8.25-9.47 5.8-14.09 8.25c-4.63 2.46-9.17 3.69-13.65 3.69-6.86 0-12.75-1.45-17.67-4.34-4.92-2.89-9.02-6.37-12.3-10.43-3.29-4.05-5.75-8.4-7.38-13.03-1.64-4.63-2.46-8.69-2.46-12.16 0-5.21 1.12-10.21 3.36-14.99 2.23-4.78 5.14-8.91 8.71-12.38zm-12.08-82.97c0-5.21 1.12-10.13 3.36-14.77 2.24-4.63 5.29-8.69 9.17-12.16 3.87-3.48 8.28-6.22 13.2-8.25a40.273 40.273 0 0115.43-3.04c5.07 0 9.84 1.09 14.32 3.26 4.47 2.17 8.42 5.07 11.86 8.69 3.43 3.62 6.19 7.82 8.28 12.6 2.08 4.78 3.13 9.77 3.13 14.99 0 9.56-3.73 18.1-11.18 25.63-8.65 9.27-17.9 13.9-27.74 13.9-7.46 0-13.72-1.45-18.79-4.34-5.07-2.89-9.17-6.44-12.3-10.64-3.13-4.2-5.37-8.69-6.71-13.47-1.35-4.8-2.03-8.93-2.03-12.4zm-483.56-24.33c2.98-4.34 5.74-8.91 8.28-13.68 2.53-4.78 3.8-10.06 3.8-15.85 0-5.21-1.12-10.13-3.36-14.77-2.24-4.63-5.15-8.69-8.72-12.16-3.58-3.48-7.76-6.22-12.53-8.25-4.77-2.02-9.84-3.04-15.21-3.04-8.05 0-14.25 1.24-18.57 3.69-4.33 2.46-8.13 5.21-11.41 8.25-3.29 3.04-6.86 5.8-10.74 8.25-3.88 2.46-9.4 3.69-16.55 3.69-5.97 0-11.11-1.23-15.43-3.69-4.33-2.46-8.5-5.21-12.53-8.25a116.63 116.63 0 00-12.53-8.25c-4.33-2.46-9.32-3.69-14.99-3.69-10.74 0-20.06 3.55-27.96 10.64-7.91 7.1-11.86 16.58-11.86 28.45 0 4.34 1.26 8.76 3.8 13.25 2.53 4.49 5.21 8.98 8.05 13.47 2.83 4.49 5.51 8.98 8.05 13.47 2.53 4.49 3.8 8.91 3.8 13.25 0 4.93-1.27 9.63-3.8 14.12-2.54 4.49-5.22 8.98-8.05 13.47a308.49 308.49 0 00-8.05 13.47c-2.54 4.49-3.8 9.2-3.8 14.12 0 4.93 1.26 9.63 3.8 14.12 2.53 4.49 5.21 9.05 8.05 13.68 2.83 4.64 5.51 9.2 8.05 13.68 2.53 4.49 3.8 8.91 3.8 13.25 0 5.21-1.27 10.14-3.8 14.77-2.54 4.64-5.22 9.05-8.05 13.25-2.84 4.2-5.52 8.47-8.05 12.81-2.54 4.34-3.8 8.98-3.8 13.9 0 5.21 1.04 10.21 3.13 14.99 2.08 4.78 4.92 8.91 8.5 12.38 3.58 3.47 7.75 6.23 12.53 8.25 4.77 2.03 9.84 3.04 15.21 3.04 5.66 0 10.88-1.23 15.66-3.69 4.77-2.46 9.24-5.21 13.42-8.25 4.17-3.04 8.35-5.86 12.53-8.47 4.17-2.61 8.65-3.91 13.42-3.91 4.47 0 9.09 1.3 13.87 3.91 4.77 2.61 9.62 5.43 14.54 8.47 4.92 3.04 9.77 5.8 14.54 8.25 4.77 2.46 9.4 3.69 13.87 3.69 11.03 0 20.65-3.62 28.86-10.86 8.2-7.24 12.3-16.65 12.3-28.24 0-3.76-1.27-7.96-3.8-12.6-2.54-4.63-5.3-9.26-8.28-13.9a192.54 192.54 0 01-8.28-14.12c-2.54-4.78-3.8-9.34-3.8-13.68 0-3.76 1.27-7.89 3.8-12.38 2.53-4.49 5.29-9.12 8.28-13.9 2.98-4.78 5.74-9.62 8.28-14.55 2.53-4.92 3.8-9.84 3.8-14.77-.3-3.76-1.72-8.04-4.25-12.81-2.54-4.78-5.3-9.56-8.28-14.34-2.99-4.78-5.67-9.48-8.05-14.12-2.39-4.63-3.58-8.97-3.58-13.03 0-4.05 1.27-8.1 3.8-12.16 2.54-4.07 5.3-8.27 8.29-12.62zm-64.43 95.35c2.38 4.49 4.99 8.91 7.83 13.25 2.83 4.34 5.44 8.69 7.83 13.03 2.38 4.34 3.58 8.69 3.58 13.03 0 4.93-1.12 9.85-3.36 14.77-2.24 4.93-5.3 9.27-9.17 13.03-3.88 3.77-8.35 6.81-13.42 9.12-5.08 2.32-10.44 3.48-16.11 3.48-5.37 0-10.29-1.37-14.76-4.13a43.589 43.589 0 01-11.63-10.43c-3.28-4.19-5.82-8.61-7.61-13.25-1.79-4.63-2.68-8.83-2.68-12.6 0-3.76 1.27-7.89 3.8-12.38 2.53-4.49 5.21-9.12 8.05-13.9 2.83-4.78 5.52-9.62 8.05-14.55 2.53-4.92 3.8-9.84 3.8-14.77 0-3.48-1.27-7.67-3.8-12.6-2.54-4.92-5.3-9.99-8.28-15.2a525.25 525.25 0 01-8.28-14.99c-2.54-4.78-3.8-8.76-3.8-11.95 0-3.18.89-6.95 2.68-11.29 1.79-4.34 4.4-8.54 7.83-12.6 3.42-4.05 7.53-7.45 12.3-10.21 4.77-2.75 10.14-4.13 16.11-4.13 5.37 0 10.51 1.02 15.43 3.04 4.92 2.03 9.17 4.78 12.75 8.25s6.49 7.6 8.72 12.38c2.24 4.78 3.36 9.77 3.36 14.99 0 4.64-1.2 9.2-3.58 13.68-2.39 4.49-5 8.98-7.83 13.47a176.75 176.75 0 00-7.83 13.68c-2.39 4.64-3.58 9.41-3.58 14.34v1.74c.03 4.66 1.21 9.22 3.6 13.7z" fill="#CACACA"/></svg>