<svg fill="none" xmlns="http://www.w3.org/2000/svg" viewBox="0 0 31 30"><path d="M13.963 27.9A13.95 13.95 0 1113.937 0a13.95 13.95 0 01.026 27.9zm0-24.048A10.11 10.11 0 1024.06 13.95 10.11 10.11 0 0013.963 3.89v-.038z" fill="#fff"/><path d="M29.184 29.966c-.239 0-.476-.041-.697-.124a1.834 1.834 0 01-.59-.356l-6.703-6.02a1.569 1.569 0 01-.528-1.158c0-.433.19-.849.528-1.158.168-.153.369-.275.59-.358a1.987 1.987 0 011.395 0c.22.083.42.205.59.358l6.703 6.02c.338.308.527.724.527 1.158 0 .433-.19.85-.527 1.158a1.969 1.969 0 01-1.288.48z" fill="#fff"/></svg>