<svg fill="none" xmlns="http://www.w3.org/2000/svg" viewBox="0 0 41 30"><path d="M10.49 27.77c.846.523 1.724.982 2.63 1.377.245.134.5.249.762.344.75.217 1.55.153 2.261-.18.973-.412 1.749-1.196 2.735-1.609a2.937 2.937 0 011.117-.275c.403.035.793.162 1.144.371.473.262.96.537 1.485.853.526.317 1.065.62 1.591.88.407.237.853.391 1.315.455a3.221 3.221 0 001.498-.4l1.473-.852 1.393-.867c.398-.249.851-.386 1.315-.399.527.003 1.046.14 1.512.4.486.274.946.563 1.406.866l1.315.853c.393.26.849.399 1.314.399a3.55 3.55 0 001.568-.308 3.703 3.703 0 001.298-.972 4.696 4.696 0 001.091-3.136 4.019 4.019 0 00-.302-1.5 4.476 4.476 0 00-.842-1.307 4.322 4.322 0 00-1.314-.935 3.428 3.428 0 00-1.512-.344 3.192 3.192 0 00-1.538.371c-.456.253-.895.538-1.314.853-.421.317-.855.606-1.315.867a2.679 2.679 0 01-1.315.371 2.743 2.743 0 01-1.314-.371 11.346 11.346 0 01-1.315-.867 22.423 22.423 0 00-1.407-.853 3.032 3.032 0 00-1.406-.371 2.88 2.88 0 00-1.525.399c-.447.261-.894.564-1.315.88-.42.317-.867.605-1.314.88-.397.253-.85.39-1.315.4a3.057 3.057 0 01-1.498-.4 13.05 13.05 0 01-1.315-.907c-.423-.327-.862-.63-1.315-.908a3.134 3.134 0 00-1.538-.4c-.494 0-.98.139-1.406.4-.434.275-.868.564-1.315.866-.447.303-.815.578-1.223.853-.396.252-.85.39-1.314.4a2.756 2.756 0 01-1.315-.372c-.447-.261-.907-.55-1.314-.867-.454-.31-.924-.595-1.407-.853a3.131 3.131 0 00-1.433-.371 3.667 3.667 0 00-1.551.33c-.497.205-.945.519-1.315.922-.348.4-.62.867-.802 1.375A4.627 4.627 0 000 25.762c0 .552.103 1.099.302 1.61.203.506.487.972.842 1.376.348.384.763.697 1.222.921.472.22.983.332 1.499.33a3.282 3.282 0 001.578-.37 14.47 14.47 0 001.314-.868c.434-.316.881-.591 1.315-.852a2.782 2.782 0 011.314-.386c.378.027.75.11 1.105.248zM10.49 6.369c.846.518 1.724.975 2.63 1.367.245.133.5.248.762.341a3.31 3.31 0 002.261-.177c.973-.41 1.749-1.19 2.735-1.6a3.02 3.02 0 011.117-.286c.403.04.794.17 1.144.382.473.246.96.533 1.485.848.526.314 1.065.615 1.591.874a3.61 3.61 0 001.315.452 3.239 3.239 0 001.498-.397c.487-.273.986-.56 1.473-.86l1.393-.848a2.62 2.62 0 011.315-.397c.527.003 1.046.14 1.512.397.486.273.946.56 1.406.847l1.315.861c.393.259.849.396 1.314.397a3.57 3.57 0 001.569-.307 3.7 3.7 0 001.297-.965 4.66 4.66 0 001.091-3.116 3.916 3.916 0 00-.302-1.49 4.288 4.288 0 00-.841-1.366 4.324 4.324 0 00-1.315-.93 3.463 3.463 0 00-1.512-.355 3.223 3.223 0 00-1.538.383c-.459.246-.898.53-1.314.847-.423.308-.862.59-1.315.847a2.554 2.554 0 01-1.315.383 2.644 2.644 0 01-1.314-.383c-.452-.259-.89-.541-1.315-.847a17.365 17.365 0 00-1.407-.847A3.074 3.074 0 0025.82.04a2.908 2.908 0 00-1.525.41c-.447.26-.894.56-1.315.875-.42.314-.867.601-1.314.874-.397.251-.85.388-1.315.397a3.073 3.073 0 01-1.498-.397 13.049 13.049 0 01-1.315-.902 15.131 15.131 0 00-1.315-.902A3.15 3.15 0 0014.684 0c-.494 0-.98.137-1.406.396-.434.274-.868.56-1.315.861l-1.223.848c-.397.25-.85.387-1.314.396a2.656 2.656 0 01-1.315-.383c-.452-.258-.89-.54-1.315-.847-.45-.314-.92-.597-1.406-.847A3.175 3.175 0 003.957.04a3.499 3.499 0 00-1.551.342 3.702 3.702 0 00-1.315.915c-.349.399-.62.863-.802 1.367A4.556 4.556 0 000 4.292c-.001.553.101 1.1.302 1.612.198.506.483.969.842 1.367.344.39.76.707 1.222.93.472.218.983.33 1.499.328a3.147 3.147 0 001.578-.383c.455-.253.894-.536 1.314-.848.423-.307.862-.59 1.315-.847.4-.241.852-.373 1.314-.383.38.044.753.146 1.105.301zM10.635 12.885c-.38.223-.813.328-1.249.302a2.646 2.646 0 01-1.314-.385 14.197 14.197 0 01-1.315-.851 12.01 12.01 0 00-1.314-.852 3.134 3.134 0 00-1.578-.385 3.52 3.52 0 00-1.499.33 3.878 3.878 0 00-1.222.934c-.359.4-.644.866-.842 1.374A4.425 4.425 0 000 14.972a4.598 4.598 0 00.29 1.635c.18.507.452.973.801 1.373.37.402.818.716 1.315.92.486.234 1.016.35 1.551.344.5-.012.99-.144 1.433-.385a12.46 12.46 0 001.407-.851c.423-.308.862-.592 1.314-.852.4-.242.853-.374 1.315-.384.464.009.918.146 1.315.398.411.275.819.563 1.222.865.408.289.841.577 1.315.852.426.26.912.398 1.406.398a3.136 3.136 0 001.538-.398c.453-.278.892-.581 1.315-.907.465-.33.903-.631 1.315-.906.46-.26.975-.397 1.498-.399.464.01.918.147 1.315.399.42.274.854.563 1.315.879.46.316.893.618 1.314.879.464.277.99.419 1.525.412a3.061 3.061 0 001.407-.385c.46-.247.933-.535 1.406-.851.424-.307.863-.591 1.315-.852.4-.243.852-.375 1.315-.384.463.005.916.137 1.314.384.453.258.892.542 1.315.852.416.32.855.604 1.314.851a3.21 3.21 0 001.538.385 3.449 3.449 0 001.512-.357c.49-.224.936-.54 1.315-.934a4.3 4.3 0 00.841-1.305c.197-.473.3-.982.303-1.497a4.726 4.726 0 00-1.091-3.132 3.704 3.704 0 00-1.298-.97 3.555 3.555 0 00-1.568-.307 2.38 2.38 0 00-1.315.398l-1.315.866c-.46.302-.92.576-1.406.851a3.151 3.151 0 01-1.512.399 2.611 2.611 0 01-1.315-.399l-1.393-.851a41.01 41.01 0 00-1.473-.866 3.225 3.225 0 00-1.498-.398 3.598 3.598 0 00-1.315.453c-.526.261-1.052.563-1.59.88-.54.315-1.013.604-1.486.85-.35.214-.74.345-1.144.385a3.008 3.008 0 01-1.117-.288c-1.315-.522-2.064-1.593-3.47-1.827a4.588 4.588 0 00-1.989-.09 4.669 4.669 0 00-1.85.763c-.29.36-.603.699-.934 1.017z" fill="#fff"/></svg>