<svg xmlns="http://www.w3.org/2000/svg" overflow="visible" viewBox="0 0 30.54 30.28"><path d="M25.36 7.06c-.25.23-.44.52-.53.85-.05.4-.07.8-.07 1.2-.1.51-.31.99-.61 1.41-.2.27-.43.52-.68.73-.04.04-.07.08-.11.11-.28.29-.62.51-1 .64-.38.12-.78.22-1.18.28-.33.06-.66.13-.98.21-.01 0-.02.01-.03.01-.27.11-.53.26-.75.46-.2.24-.35.52-.43.82l-.01.04c-.12.38-.24.78-.36 1.22-.03.12-.06.24-.1.36.06.29.13.58.21.86.12.38.33.72.61 1 .26.26.59.44.94.52.37.09.76.17 1.16.25.4.07.8.16 1.19.27.38.12.72.33 1 .61.27.28.46.63.57 1 .12.39.23.79.32 1.21.09.42.19.82.3 1.2.1.35.29.67.54.93.27.28.62.47 1 .55.38.11.76.19 1.14.25.4.07.8.16 1.18.29.38.13.73.35 1 .64.29.28.51.62.64 1 .14.37.21.76.2 1.16-.01.39-.08.78-.23 1.14-.13.36-.34.68-.61.95-.59.6-1.39.96-2.23 1-.41.03-.83-.04-1.21-.19-.39-.15-.73-.39-1.02-.69-.23-.25-.4-.56-.47-.9-.09-.37-.18-.76-.27-1.16s-.2-.81-.32-1.21c-.12-.38-.33-.72-.62-1-.25-.23-.56-.4-.89-.47l-1.21-.32a.737.737 0 01-.14-.04c-.04 0-.08.01-.12.01-.4.02-.8-.05-1.17-.2-.38-.15-.72-.38-1-.68-.27-.28-.47-.62-.58-1-.13-.4-.24-.8-.32-1.21-.08-.4-.18-.8-.3-1.19a2.01 2.01 0 00-.51-.91c-.27-.27-.62-.45-1-.53-.34-.08-.69-.14-1.04-.21l-.98.26c-.33.08-.63.24-.89.47-.28.28-.49.62-.62 1-.12.4-.23.81-.32 1.21-.09.41-.18.8-.27 1.17-.07.33-.23.64-.47.89a2.8 2.8 0 01-2.03.89l-.6.12-1.12.23c-.38.07-.73.26-1 .53-.24.26-.41.56-.51.9-.11.38-.21.78-.29 1.19-.08.41-.19.81-.33 1.21-.1.38-.3.72-.58 1-.28.29-.62.52-1 .68-.37.14-.76.21-1.16.2-.4-.02-.79-.11-1.16-.28-.37-.17-.71-.4-1-.7-.29-.28-.53-.62-.68-1-.15-.37-.23-.76-.25-1.16-.01-.39.05-.78.19-1.15.14-.38.36-.72.64-1 .29-.3.66-.53 1.06-.66.39-.13.79-.23 1.19-.3.39-.07.78-.16 1.16-.27.35-.1.68-.28.94-.54.25-.23.44-.52.53-.85.08-.4.12-.8.14-1.2.11-.51.32-.99.61-1.41.2-.27.43-.52.69-.73.03-.04.07-.08.1-.11.28-.29.62-.51 1-.64.38-.12.78-.22 1.17-.28.34-.06.67-.13.98-.21.01 0 .02-.01.03-.01.28-.11.54-.26.76-.46.2-.24.35-.52.43-.82l.02-.04c.11-.38.24-.78.35-1.21l.09-.32c-.06-.3-.14-.6-.23-.9-.11-.38-.32-.72-.6-1-.26-.26-.58-.44-.94-.52-.37-.09-.76-.17-1.16-.25-.4-.07-.8-.16-1.19-.27a2.46 2.46 0 01-1-.61c-.26-.28-.46-.63-.57-1-.12-.4-.23-.8-.32-1.22-.09-.42-.19-.82-.31-1.2-.09-.35-.28-.67-.53-.93-.27-.28-.62-.47-1-.55-.37-.1-.75-.19-1.14-.25-.4-.07-.79-.16-1.18-.29-.38-.13-.72-.35-1-.64-.29-.28-.51-.62-.64-1-.14-.37-.21-.76-.2-1.16.01-.39.08-.77.22-1.14.14-.36.35-.68.62-.95.59-.6 1.39-.96 2.23-1a2.775 2.775 0 012.22.88c.24.25.41.56.48.9.09.37.18.76.27 1.16.09.4.2.81.32 1.21.12.38.33.72.61 1 .26.23.57.4.9.47l1.21.32c.05.01.1.03.14.04.05 0 .09-.01.13-.01.4-.02.8.05 1.17.2.38.15.72.38 1 .68.27.28.47.63.58 1 .13.4.24.8.32 1.21.08.4.18.8.3 1.19.09.34.26.65.5.91.28.27.62.45 1 .53.34.08.7.14 1.06.21l.98-.26c.33-.08.64-.24.89-.47.28-.28.5-.62.62-1 .12-.4.23-.81.32-1.21.09-.41.18-.8.27-1.17.07-.33.24-.64.47-.89.28-.3.63-.54 1.01-.69.32-.13.66-.2 1.01-.2l.6-.12 1.12-.23c.36-.08.69-.27.95-.53.24-.26.41-.56.51-.9.11-.38.21-.78.29-1.19.09-.41.19-.81.32-1.21.12-.37.31-.72.58-1 .29-.29.63-.52 1-.68.37-.15.77-.21 1.16-.2.4.02.8.11 1.16.28.38.17.72.4 1 .7.3.28.53.62.68 1 .15.37.23.76.25 1.16.01.39-.05.78-.19 1.15-.14.38-.36.72-.64 1-.29.3-.66.53-1.06.66-.39.13-.79.23-1.19.3-.39.07-.78.16-1.16.27-.35.1-.67.29-.94.54z" fill-rule="evenodd" clip-rule="evenodd" fill="#f0f0f5"/></svg>